<svg xmlns="http://www.w3.org/2000/svg" xmlns:xlink="http://www.w3.org/1999/xlink" width="300" zoomAndPan="magnify" viewBox="0 0 224.87999 48" height="64" preserveAspectRatio="xMidYMid meet" version="1.0"><defs><filter x="0%" y="0%" width="100%" height="100%" id="8649a2ce3e"><feColorMatrix values="0 0 0 0 1 0 0 0 0 1 0 0 0 0 1 0 0 0 1 0" color-interpolation-filters="sRGB"/></filter><g/><clipPath id="46a9da7d7d"><path d="M 12 21 L 39 21 L 39 47.019531 L 12 47.019531 Z M 12 21 " clip-rule="nonzero"/></clipPath><mask id="359b018740"><g filter="url(#8649a2ce3e)"><rect x="-22.487999" width="269.855988" fill="#000000" y="-4.8" height="57.6" fill-opacity="0.8"/></g></mask><clipPath id="8867d1efac"><path d="M 0.929688 0.835938 L 26.113281 0.835938 L 26.113281 26.019531 L 0.929688 26.019531 Z M 0.929688 0.835938 " clip-rule="nonzero"/></clipPath><clipPath id="f0f25a59a6"><path d="M 13.519531 0.835938 C 6.566406 0.835938 0.929688 6.472656 0.929688 13.429688 C 0.929688 20.382812 6.566406 26.019531 13.519531 26.019531 C 20.472656 26.019531 26.113281 20.382812 26.113281 13.429688 C 26.113281 6.472656 20.472656 0.835938 13.519531 0.835938 " clip-rule="nonzero"/></clipPath><clipPath id="e008d63432"><rect x="0" width="27" y="0" height="27"/></clipPath><clipPath id="6ec299c996"><path d="M 2.234375 10 L 28 10 L 28 37 L 2.234375 37 Z M 2.234375 10 " clip-rule="nonzero"/></clipPath><mask id="3b899c9518"><g filter="url(#8649a2ce3e)"><rect x="-22.487999" width="269.855988" fill="#000000" y="-4.8" height="57.6" fill-opacity="0.8"/></g></mask><clipPath id="905a75413c"><path d="M 0.234375 0.917969 L 25.417969 0.917969 L 25.417969 26.101562 L 0.234375 26.101562 Z M 0.234375 0.917969 " clip-rule="nonzero"/></clipPath><clipPath id="ad1c1654f2"><path d="M 12.828125 0.917969 C 5.875 0.917969 0.234375 6.554688 0.234375 13.511719 C 0.234375 20.464844 5.875 26.101562 12.828125 26.101562 C 19.78125 26.101562 25.417969 20.464844 25.417969 13.511719 C 25.417969 6.554688 19.78125 0.917969 12.828125 0.917969 " clip-rule="nonzero"/></clipPath><clipPath id="960c3b3831"><rect x="0" width="26" y="0" height="27"/></clipPath><mask id="ef30bc4efd"><g filter="url(#8649a2ce3e)"><rect x="-22.487999" width="269.855988" fill="#000000" y="-4.8" height="57.6" fill-opacity="0.8"/></g></mask><clipPath id="b8ad271ef6"><path d="M 0.621094 0.917969 L 25.804688 0.917969 L 25.804688 26.101562 L 0.621094 26.101562 Z M 0.621094 0.917969 " clip-rule="nonzero"/></clipPath><clipPath id="e28995558f"><path d="M 13.210938 0.917969 C 6.257812 0.917969 0.621094 6.554688 0.621094 13.511719 C 0.621094 20.464844 6.257812 26.101562 13.210938 26.101562 C 20.167969 26.101562 25.804688 20.464844 25.804688 13.511719 C 25.804688 6.554688 20.167969 0.917969 13.210938 0.917969 " clip-rule="nonzero"/></clipPath><clipPath id="b0cc9c9840"><rect x="0" width="27" y="0" height="27"/></clipPath><mask id="95e31dae70"><g filter="url(#8649a2ce3e)"><rect x="-22.487999" width="269.855988" fill="#000000" y="-4.8" height="57.6" fill-opacity="0.8"/></g></mask><clipPath id="eef9e31ffd"><path d="M 0.929688 0 L 26.113281 0 L 26.113281 25.183594 L 0.929688 25.183594 Z M 0.929688 0 " clip-rule="nonzero"/></clipPath><clipPath id="b45ed7f477"><path d="M 13.519531 0 C 6.566406 0 0.929688 5.636719 0.929688 12.589844 C 0.929688 19.546875 6.566406 25.183594 13.519531 25.183594 C 20.472656 25.183594 26.113281 19.546875 26.113281 12.589844 C 26.113281 5.636719 20.472656 0 13.519531 0 " clip-rule="nonzero"/></clipPath><clipPath id="c8dbee6b57"><rect x="0" width="27" y="0" height="26"/></clipPath><clipPath id="93affcd874"><path d="M 206 16 L 222.527344 16 L 222.527344 34 L 206 34 Z M 206 16 " clip-rule="nonzero"/></clipPath></defs><g clip-path="url(#46a9da7d7d)"><g mask="url(#359b018740)"><g transform="matrix(1, 0, 0, 1, 12, 21)"><g clip-path="url(#e008d63432)"><g clip-path="url(#8867d1efac)"><g clip-path="url(#f0f25a59a6)"><path fill="#ffdd57" d="M 0.929688 0.835938 L 26.113281 0.835938 L 26.113281 26.019531 L 0.929688 26.019531 Z M 0.929688 0.835938 " fill-opacity="1" fill-rule="nonzero"/></g></g></g></g></g></g><g clip-path="url(#6ec299c996)"><g mask="url(#3b899c9518)"><g transform="matrix(1, 0, 0, 1, 2, 10)"><g clip-path="url(#960c3b3831)"><g clip-path="url(#905a75413c)"><g clip-path="url(#ad1c1654f2)"><path fill="#4cc877" d="M 0.234375 0.917969 L 25.417969 0.917969 L 25.417969 26.101562 L 0.234375 26.101562 Z M 0.234375 0.917969 " fill-opacity="1" fill-rule="nonzero"/></g></g></g></g></g></g><g mask="url(#ef30bc4efd)"><g transform="matrix(1, 0, 0, 1, 23, 10)"><g clip-path="url(#b0cc9c9840)"><g clip-path="url(#b8ad271ef6)"><g clip-path="url(#e28995558f)"><path fill="#209cee" d="M 0.621094 0.917969 L 25.804688 0.917969 L 25.804688 26.101562 L 0.621094 26.101562 Z M 0.621094 0.917969 " fill-opacity="1" fill-rule="nonzero"/></g></g></g></g></g><g mask="url(#95e31dae70)"><g transform="matrix(1, 0, 0, 1, 12, 0.000000000000005041)"><g clip-path="url(#c8dbee6b57)"><g clip-path="url(#eef9e31ffd)"><g clip-path="url(#b45ed7f477)"><path fill="#ff3860" d="M 0.929688 0 L 26.113281 0 L 26.113281 25.183594 L 0.929688 25.183594 Z M 0.929688 0 " fill-opacity="1" fill-rule="nonzero"/></g></g></g></g></g><g fill="#000000" fill-opacity="1"><g transform="translate(60.942544, 33.63254)"><g><path d="M 7.28125 -8.28125 L 5.59375 -11.796875 L 5.53125 -11.796875 L 5.53125 0 L 1.9375 0 L 1.9375 -17.53125 L 6.09375 -17.53125 L 10.890625 -9.234375 L 12.578125 -5.71875 L 12.65625 -5.71875 L 12.65625 -17.53125 L 16.25 -17.53125 L 16.25 0 L 12.078125 0 Z M 7.28125 -8.28125 "/></g></g></g><g fill="#000000" fill-opacity="1"><g transform="translate(79.119166, 33.63254)"><g><path d="M 1.9375 0 L 1.9375 -17.53125 L 13.859375 -17.53125 L 13.859375 -14.140625 L 5.75 -14.140625 L 5.75 -10.546875 L 12.703125 -10.546875 L 12.703125 -7.1875 L 5.75 -7.1875 L 5.75 -3.390625 L 13.859375 -3.390625 L 13.859375 0 Z M 1.9375 0 "/></g></g></g><g fill="#000000" fill-opacity="1"><g transform="translate(94.358401, 33.63254)"><g><path d="M 1.25 0 L 1.25 -3.03125 L 3.515625 -3.03125 L 3.515625 -14.484375 L 1.25 -14.484375 L 1.25 -17.53125 L 9.59375 -17.53125 L 9.59375 -14.484375 L 7.328125 -14.484375 L 7.328125 -3.03125 L 9.59375 -3.03125 L 9.59375 0 Z M 1.25 0 "/></g></g></g><g fill="#000000" fill-opacity="1"><g transform="translate(105.204115, 33.63254)"><g><path d="M 13.0625 -2.78125 L 12.9375 -2.78125 C 12.800781 -1.894531 12.347656 -1.160156 11.578125 -0.578125 C 10.804688 0.00390625 9.757812 0.296875 8.4375 0.296875 C 7.4375 0.296875 6.5 0.101562 5.625 -0.28125 C 4.75 -0.664062 3.984375 -1.234375 3.328125 -1.984375 C 2.679688 -2.734375 2.171875 -3.671875 1.796875 -4.796875 C 1.429688 -5.921875 1.25 -7.21875 1.25 -8.6875 C 1.25 -10.15625 1.441406 -11.457031 1.828125 -12.59375 C 2.210938 -13.738281 2.753906 -14.695312 3.453125 -15.46875 C 4.148438 -16.238281 4.984375 -16.820312 5.953125 -17.21875 C 6.921875 -17.625 8 -17.828125 9.1875 -17.828125 C 10.757812 -17.828125 12.113281 -17.488281 13.25 -16.8125 C 14.394531 -16.132812 15.289062 -15.117188 15.9375 -13.765625 L 12.828125 -11.984375 C 12.554688 -12.660156 12.132812 -13.238281 11.5625 -13.71875 C 11 -14.195312 10.207031 -14.4375 9.1875 -14.4375 C 8 -14.4375 7.050781 -14.09375 6.34375 -13.40625 C 5.644531 -12.71875 5.296875 -11.640625 5.296875 -10.171875 L 5.296875 -7.359375 C 5.296875 -5.898438 5.644531 -4.820312 6.34375 -4.125 C 7.050781 -3.4375 8 -3.09375 9.1875 -3.09375 C 9.65625 -3.09375 10.097656 -3.144531 10.515625 -3.25 C 10.941406 -3.363281 11.3125 -3.53125 11.625 -3.75 C 11.945312 -3.976562 12.191406 -4.25 12.359375 -4.5625 C 12.535156 -4.882812 12.625 -5.265625 12.625 -5.703125 L 12.625 -6.578125 L 9.359375 -6.578125 L 9.359375 -9.765625 L 16.265625 -9.765625 L 16.265625 0 L 13.0625 0 Z M 13.0625 -2.78125 "/></g></g></g><g fill="#000000" fill-opacity="1"><g transform="translate(123.255201, 33.63254)"><g><path d="M 12.421875 -7.1875 L 5.75 -7.1875 L 5.75 0 L 1.9375 0 L 1.9375 -17.53125 L 5.75 -17.53125 L 5.75 -10.546875 L 12.421875 -10.546875 L 12.421875 -17.53125 L 16.25 -17.53125 L 16.25 0 L 12.421875 0 Z M 12.421875 -7.1875 "/></g></g></g><g fill="#000000" fill-opacity="1"><g transform="translate(141.431822, 33.63254)"><g><path d="M 1.9375 -17.53125 L 10.453125 -17.53125 C 11.898438 -17.53125 13.03125 -17.117188 13.84375 -16.296875 C 14.65625 -15.472656 15.0625 -14.382812 15.0625 -13.03125 C 15.0625 -12.363281 14.972656 -11.796875 14.796875 -11.328125 C 14.617188 -10.859375 14.382812 -10.472656 14.09375 -10.171875 C 13.800781 -9.867188 13.457031 -9.644531 13.0625 -9.5 C 12.675781 -9.363281 12.253906 -9.285156 11.796875 -9.265625 L 11.796875 -9.109375 C 12.210938 -9.109375 12.648438 -9.03125 13.109375 -8.875 C 13.578125 -8.726562 14.003906 -8.492188 14.390625 -8.171875 C 14.773438 -7.847656 15.097656 -7.425781 15.359375 -6.90625 C 15.617188 -6.382812 15.75 -5.75 15.75 -5 C 15.75 -4.3125 15.632812 -3.660156 15.40625 -3.046875 C 15.175781 -2.441406 14.859375 -1.910156 14.453125 -1.453125 C 14.054688 -1.003906 13.582031 -0.648438 13.03125 -0.390625 C 12.476562 -0.128906 11.875 0 11.21875 0 L 1.9375 0 Z M 5.75 -3.21875 L 10.140625 -3.21875 C 10.640625 -3.21875 11.035156 -3.351562 11.328125 -3.625 C 11.628906 -3.90625 11.78125 -4.296875 11.78125 -4.796875 L 11.78125 -5.65625 C 11.78125 -6.15625 11.628906 -6.539062 11.328125 -6.8125 C 11.035156 -7.09375 10.640625 -7.234375 10.140625 -7.234375 L 5.75 -7.234375 Z M 5.75 -10.34375 L 9.546875 -10.34375 C 10.046875 -10.34375 10.4375 -10.484375 10.71875 -10.765625 C 11.007812 -11.054688 11.15625 -11.453125 11.15625 -11.953125 L 11.15625 -12.703125 C 11.15625 -13.203125 11.007812 -13.59375 10.71875 -13.875 C 10.4375 -14.164062 10.046875 -14.3125 9.546875 -14.3125 L 5.75 -14.3125 Z M 5.75 -10.34375 "/></g></g></g><g fill="#000000" fill-opacity="1"><g transform="translate(158.177408, 33.63254)"><g><path d="M 8.96875 0.296875 C 7.8125 0.296875 6.753906 0.101562 5.796875 -0.28125 C 4.847656 -0.664062 4.035156 -1.238281 3.359375 -2 C 2.691406 -2.757812 2.171875 -3.703125 1.796875 -4.828125 C 1.429688 -5.960938 1.25 -7.273438 1.25 -8.765625 C 1.25 -10.253906 1.429688 -11.5625 1.796875 -12.6875 C 2.171875 -13.820312 2.691406 -14.769531 3.359375 -15.53125 C 4.035156 -16.289062 4.847656 -16.863281 5.796875 -17.25 C 6.753906 -17.632812 7.8125 -17.828125 8.96875 -17.828125 C 10.125 -17.828125 11.175781 -17.632812 12.125 -17.25 C 13.082031 -16.863281 13.894531 -16.289062 14.5625 -15.53125 C 15.226562 -14.769531 15.742188 -13.820312 16.109375 -12.6875 C 16.484375 -11.5625 16.671875 -10.253906 16.671875 -8.765625 C 16.671875 -7.273438 16.484375 -5.960938 16.109375 -4.828125 C 15.742188 -3.703125 15.226562 -2.757812 14.5625 -2 C 13.894531 -1.238281 13.082031 -0.664062 12.125 -0.28125 C 11.175781 0.101562 10.125 0.296875 8.96875 0.296875 Z M 8.96875 -3.09375 C 10.125 -3.09375 11.019531 -3.46875 11.65625 -4.21875 C 12.300781 -4.96875 12.625 -6.046875 12.625 -7.453125 L 12.625 -10.0625 C 12.625 -11.46875 12.300781 -12.546875 11.65625 -13.296875 C 11.019531 -14.054688 10.125 -14.4375 8.96875 -14.4375 C 7.8125 -14.4375 6.910156 -14.054688 6.265625 -13.296875 C 5.617188 -12.546875 5.296875 -11.46875 5.296875 -10.0625 L 5.296875 -7.453125 C 5.296875 -6.046875 5.617188 -4.96875 6.265625 -4.21875 C 6.910156 -3.46875 7.8125 -3.09375 8.96875 -3.09375 Z M 8.96875 -3.09375 "/></g></g></g><g fill="#000000" fill-opacity="1"><g transform="translate(176.102969, 33.63254)"><g><path d="M 5.75 0 L 1.9375 0 L 1.9375 -17.53125 L 10.25 -17.53125 C 11.050781 -17.53125 11.773438 -17.394531 12.421875 -17.125 C 13.078125 -16.851562 13.632812 -16.46875 14.09375 -15.96875 C 14.5625 -15.476562 14.921875 -14.890625 15.171875 -14.203125 C 15.421875 -13.523438 15.546875 -12.765625 15.546875 -11.921875 C 15.546875 -10.734375 15.28125 -9.695312 14.75 -8.8125 C 14.21875 -7.925781 13.421875 -7.28125 12.359375 -6.875 L 15.796875 0 L 11.546875 0 L 8.484375 -6.421875 L 5.75 -6.421875 Z M 9.765625 -9.640625 C 10.335938 -9.640625 10.785156 -9.785156 11.109375 -10.078125 C 11.429688 -10.367188 11.59375 -10.800781 11.59375 -11.375 L 11.59375 -12.484375 C 11.59375 -13.046875 11.429688 -13.472656 11.109375 -13.765625 C 10.785156 -14.066406 10.335938 -14.21875 9.765625 -14.21875 L 5.75 -14.21875 L 5.75 -9.640625 Z M 9.765625 -9.640625 "/></g></g></g><g fill="#000000" fill-opacity="1"><g transform="translate(193.024291, 33.63254)"><g><path d="M 1.9375 0 L 1.9375 -17.53125 L 5.75 -17.53125 L 5.75 -3.390625 L 12.421875 -3.390625 L 12.421875 0 Z M 1.9375 0 "/></g></g></g><g clip-path="url(#93affcd874)"><g fill="#000000" fill-opacity="1"><g transform="translate(206.330382, 33.63254)"><g><path d="M 6.234375 0 L 6.234375 -6.859375 L 0.21875 -17.53125 L 4.5 -17.53125 L 8.265625 -10.546875 L 8.3125 -10.546875 L 11.921875 -17.53125 L 16.0625 -17.53125 L 10.0625 -6.875 L 10.0625 0 Z M 6.234375 0 "/></g></g></g></g></svg>