<svg xmlns="http://www.w3.org/2000/svg" xmlns:xlink="http://www.w3.org/1999/xlink" width="300" zoomAndPan="magnify" viewBox="0 0 224.87999 48" height="64" preserveAspectRatio="xMidYMid meet" version="1.0"><defs><filter x="0%" y="0%" width="100%" height="100%" id="55e26b3ce9"><feColorMatrix values="0 0 0 0 1 0 0 0 0 1 0 0 0 0 1 0 0 0 1 0" color-interpolation-filters="sRGB"/></filter><g/><clipPath id="df8c32d75e"><path d="M 12 21 L 39 21 L 39 47.019531 L 12 47.019531 Z M 12 21 " clip-rule="nonzero"/></clipPath><mask id="2fe4ad97a5"><g filter="url(#55e26b3ce9)"><rect x="-22.487999" width="269.855988" fill="#000000" y="-4.8" height="57.6" fill-opacity="0.8"/></g></mask><clipPath id="a922be37b6"><path d="M 0.929688 0.835938 L 26.113281 0.835938 L 26.113281 26.019531 L 0.929688 26.019531 Z M 0.929688 0.835938 " clip-rule="nonzero"/></clipPath><clipPath id="5316d56480"><path d="M 13.519531 0.835938 C 6.566406 0.835938 0.929688 6.472656 0.929688 13.429688 C 0.929688 20.382812 6.566406 26.019531 13.519531 26.019531 C 20.472656 26.019531 26.113281 20.382812 26.113281 13.429688 C 26.113281 6.472656 20.472656 0.835938 13.519531 0.835938 " clip-rule="nonzero"/></clipPath><clipPath id="ca80cbe71d"><rect x="0" width="27" y="0" height="27"/></clipPath><clipPath id="57f0e27310"><path d="M 2.234375 10 L 28 10 L 28 37 L 2.234375 37 Z M 2.234375 10 " clip-rule="nonzero"/></clipPath><mask id="95ae05a51b"><g filter="url(#55e26b3ce9)"><rect x="-22.487999" width="269.855988" fill="#000000" y="-4.8" height="57.6" fill-opacity="0.8"/></g></mask><clipPath id="663a70dbbe"><path d="M 0.234375 0.917969 L 25.417969 0.917969 L 25.417969 26.101562 L 0.234375 26.101562 Z M 0.234375 0.917969 " clip-rule="nonzero"/></clipPath><clipPath id="17a24d3eaf"><path d="M 12.828125 0.917969 C 5.875 0.917969 0.234375 6.554688 0.234375 13.511719 C 0.234375 20.464844 5.875 26.101562 12.828125 26.101562 C 19.78125 26.101562 25.417969 20.464844 25.417969 13.511719 C 25.417969 6.554688 19.78125 0.917969 12.828125 0.917969 " clip-rule="nonzero"/></clipPath><clipPath id="b8ad5308bb"><rect x="0" width="26" y="0" height="27"/></clipPath><mask id="d8e1bf05fe"><g filter="url(#55e26b3ce9)"><rect x="-22.487999" width="269.855988" fill="#000000" y="-4.8" height="57.6" fill-opacity="0.8"/></g></mask><clipPath id="b5fea64cb0"><path d="M 0.621094 0.917969 L 25.804688 0.917969 L 25.804688 26.101562 L 0.621094 26.101562 Z M 0.621094 0.917969 " clip-rule="nonzero"/></clipPath><clipPath id="366c531986"><path d="M 13.210938 0.917969 C 6.257812 0.917969 0.621094 6.554688 0.621094 13.511719 C 0.621094 20.464844 6.257812 26.101562 13.210938 26.101562 C 20.167969 26.101562 25.804688 20.464844 25.804688 13.511719 C 25.804688 6.554688 20.167969 0.917969 13.210938 0.917969 " clip-rule="nonzero"/></clipPath><clipPath id="12f8f25b4f"><rect x="0" width="27" y="0" height="27"/></clipPath><mask id="a83e51037d"><g filter="url(#55e26b3ce9)"><rect x="-22.487999" width="269.855988" fill="#000000" y="-4.8" height="57.6" fill-opacity="0.8"/></g></mask><clipPath id="9cf7ae36cf"><path d="M 0.929688 0 L 26.113281 0 L 26.113281 25.183594 L 0.929688 25.183594 Z M 0.929688 0 " clip-rule="nonzero"/></clipPath><clipPath id="c8dcbbaeb3"><path d="M 13.519531 0 C 6.566406 0 0.929688 5.636719 0.929688 12.589844 C 0.929688 19.546875 6.566406 25.183594 13.519531 25.183594 C 20.472656 25.183594 26.113281 19.546875 26.113281 12.589844 C 26.113281 5.636719 20.472656 0 13.519531 0 " clip-rule="nonzero"/></clipPath><clipPath id="8fe65aa077"><rect x="0" width="27" y="0" height="26"/></clipPath></defs><g clip-path="url(#df8c32d75e)"><g mask="url(#2fe4ad97a5)"><g transform="matrix(1, 0, 0, 1, 12, 21)"><g clip-path="url(#ca80cbe71d)"><g clip-path="url(#a922be37b6)"><g clip-path="url(#5316d56480)"><path fill="#ffdd57" d="M 0.929688 0.835938 L 26.113281 0.835938 L 26.113281 26.019531 L 0.929688 26.019531 Z M 0.929688 0.835938 " fill-opacity="1" fill-rule="nonzero"/></g></g></g></g></g></g><g clip-path="url(#57f0e27310)"><g mask="url(#95ae05a51b)"><g transform="matrix(1, 0, 0, 1, 2, 10)"><g clip-path="url(#b8ad5308bb)"><g clip-path="url(#663a70dbbe)"><g clip-path="url(#17a24d3eaf)"><path fill="#4cc877" d="M 0.234375 0.917969 L 25.417969 0.917969 L 25.417969 26.101562 L 0.234375 26.101562 Z M 0.234375 0.917969 " fill-opacity="1" fill-rule="nonzero"/></g></g></g></g></g></g><g mask="url(#d8e1bf05fe)"><g transform="matrix(1, 0, 0, 1, 23, 10)"><g clip-path="url(#12f8f25b4f)"><g clip-path="url(#b5fea64cb0)"><g clip-path="url(#366c531986)"><path fill="#209cee" d="M 0.621094 0.917969 L 25.804688 0.917969 L 25.804688 26.101562 L 0.621094 26.101562 Z M 0.621094 0.917969 " fill-opacity="1" fill-rule="nonzero"/></g></g></g></g></g><g mask="url(#a83e51037d)"><g transform="matrix(1, 0, 0, 1, 12, 0.000000000000005041)"><g clip-path="url(#8fe65aa077)"><g clip-path="url(#9cf7ae36cf)"><g clip-path="url(#c8dcbbaeb3)"><path fill="#ff3860" d="M 0.929688 0 L 26.113281 0 L 26.113281 25.183594 L 0.929688 25.183594 Z M 0.929688 0 " fill-opacity="1" fill-rule="nonzero"/></g></g></g></g></g><g fill="#000000" fill-opacity="1"><g transform="translate(61.94586, 33.795919)"><g><path d="M 16.015625 0 C 14.703125 -2.332031 13.28125 -4.632812 11.75 -6.90625 C 10.226562 -9.175781 8.601562 -11.320312 6.875 -13.34375 L 6.875 0 L 2.34375 0 L 2.34375 -20.375 L 6.078125 -20.375 C 6.722656 -19.71875 7.4375 -18.921875 8.21875 -17.984375 C 9.007812 -17.046875 9.8125 -16.039062 10.625 -14.96875 C 11.4375 -13.90625 12.242188 -12.800781 13.046875 -11.65625 C 13.847656 -10.507812 14.601562 -9.40625 15.3125 -8.34375 L 15.3125 -20.375 L 19.875 -20.375 L 19.875 0 Z M 16.015625 0 "/></g></g></g><g fill="#000000" fill-opacity="1"><g transform="translate(84.162983, 33.795919)"><g><path d="M 1.328125 -7.609375 C 1.328125 -8.984375 1.535156 -10.179688 1.953125 -11.203125 C 2.378906 -12.234375 2.929688 -13.09375 3.609375 -13.78125 C 4.296875 -14.46875 5.082031 -14.988281 5.96875 -15.34375 C 6.863281 -15.695312 7.785156 -15.875 8.734375 -15.875 C 10.921875 -15.875 12.648438 -15.203125 13.921875 -13.859375 C 15.203125 -12.515625 15.84375 -10.539062 15.84375 -7.9375 C 15.84375 -7.675781 15.832031 -7.394531 15.8125 -7.09375 C 15.789062 -6.789062 15.769531 -6.523438 15.75 -6.296875 L 5.8125 -6.296875 C 5.914062 -5.390625 6.335938 -4.671875 7.078125 -4.140625 C 7.828125 -3.609375 8.828125 -3.34375 10.078125 -3.34375 C 10.878906 -3.34375 11.664062 -3.414062 12.4375 -3.5625 C 13.21875 -3.71875 13.851562 -3.898438 14.34375 -4.109375 L 14.9375 -0.5625 C 14.695312 -0.4375 14.378906 -0.316406 13.984375 -0.203125 C 13.597656 -0.0859375 13.164062 0.0078125 12.6875 0.09375 C 12.207031 0.1875 11.691406 0.257812 11.140625 0.3125 C 10.585938 0.375 10.039062 0.40625 9.5 0.40625 C 8.101562 0.40625 6.890625 0.203125 5.859375 -0.203125 C 4.835938 -0.617188 3.988281 -1.179688 3.3125 -1.890625 C 2.632812 -2.609375 2.132812 -3.457031 1.8125 -4.4375 C 1.488281 -5.414062 1.328125 -6.472656 1.328125 -7.609375 Z M 11.609375 -9.28125 C 11.585938 -9.65625 11.519531 -10.019531 11.40625 -10.375 C 11.300781 -10.726562 11.132812 -11.039062 10.90625 -11.3125 C 10.6875 -11.59375 10.40625 -11.816406 10.0625 -11.984375 C 9.71875 -12.160156 9.289062 -12.25 8.78125 -12.25 C 8.289062 -12.25 7.867188 -12.164062 7.515625 -12 C 7.171875 -11.832031 6.878906 -11.613281 6.640625 -11.34375 C 6.410156 -11.070312 6.226562 -10.753906 6.09375 -10.390625 C 5.96875 -10.023438 5.875 -9.65625 5.8125 -9.28125 Z M 11.609375 -9.28125 "/></g></g></g><g fill="#000000" fill-opacity="1"><g transform="translate(101.325421, 33.795919)"><g><path d="M 6.4375 0 L 2.0625 0 L 2.0625 -15.453125 L 6.4375 -15.453125 Z M 6.84375 -19.921875 C 6.84375 -19.117188 6.582031 -18.488281 6.0625 -18.03125 C 5.550781 -17.570312 4.941406 -17.34375 4.234375 -17.34375 C 3.523438 -17.34375 2.910156 -17.570312 2.390625 -18.03125 C 1.867188 -18.488281 1.609375 -19.117188 1.609375 -19.921875 C 1.609375 -20.722656 1.867188 -21.351562 2.390625 -21.8125 C 2.910156 -22.28125 3.523438 -22.515625 4.234375 -22.515625 C 4.941406 -22.515625 5.550781 -22.28125 6.0625 -21.8125 C 6.582031 -21.351562 6.84375 -20.722656 6.84375 -19.921875 Z M 6.84375 -19.921875 "/></g></g></g><g fill="#000000" fill-opacity="1"><g transform="translate(109.818469, 33.795919)"><g><path d="M 5.796875 -8.234375 C 5.796875 -5.785156 6.785156 -4.5625 8.765625 -4.5625 C 9.210938 -4.5625 9.628906 -4.617188 10.015625 -4.734375 C 10.410156 -4.847656 10.742188 -4.984375 11.015625 -5.140625 L 11.015625 -12.140625 C 10.804688 -12.179688 10.550781 -12.210938 10.25 -12.234375 C 9.957031 -12.265625 9.617188 -12.28125 9.234375 -12.28125 C 8.078125 -12.28125 7.210938 -11.898438 6.640625 -11.140625 C 6.078125 -10.378906 5.796875 -9.410156 5.796875 -8.234375 Z M 15.40625 -1.9375 C 15.40625 0.59375 14.757812 2.46875 13.46875 3.6875 C 12.1875 4.914062 10.207031 5.53125 7.53125 5.53125 C 6.582031 5.53125 5.640625 5.445312 4.703125 5.28125 C 3.765625 5.113281 2.894531 4.890625 2.09375 4.609375 L 2.84375 0.9375 C 3.53125 1.21875 4.25 1.4375 5 1.59375 C 5.757812 1.75 6.617188 1.828125 7.578125 1.828125 C 8.835938 1.828125 9.722656 1.550781 10.234375 1 C 10.753906 0.445312 11.015625 -0.253906 11.015625 -1.109375 L 11.015625 -1.671875 C 10.546875 -1.460938 10.0625 -1.300781 9.5625 -1.1875 C 9.0625 -1.082031 8.519531 -1.03125 7.9375 -1.03125 C 5.800781 -1.03125 4.164062 -1.660156 3.03125 -2.921875 C 1.894531 -4.179688 1.328125 -5.953125 1.328125 -8.234375 C 1.328125 -9.367188 1.5 -10.398438 1.84375 -11.328125 C 2.195312 -12.253906 2.710938 -13.050781 3.390625 -13.71875 C 4.066406 -14.382812 4.894531 -14.898438 5.875 -15.265625 C 6.851562 -15.628906 7.960938 -15.8125 9.203125 -15.8125 C 9.734375 -15.8125 10.273438 -15.785156 10.828125 -15.734375 C 11.390625 -15.691406 11.941406 -15.628906 12.484375 -15.546875 C 13.035156 -15.472656 13.5625 -15.378906 14.0625 -15.265625 C 14.5625 -15.160156 15.007812 -15.050781 15.40625 -14.9375 Z M 15.40625 -1.9375 "/></g></g></g><g fill="#000000" fill-opacity="1"><g transform="translate(127.274779, 33.795919)"><g><path d="M 2.0625 0 L 2.0625 -22.109375 L 6.4375 -22.8125 L 6.4375 -15.40625 C 6.726562 -15.5 7.101562 -15.585938 7.5625 -15.671875 C 8.03125 -15.765625 8.476562 -15.8125 8.90625 -15.8125 C 10.15625 -15.8125 11.195312 -15.640625 12.03125 -15.296875 C 12.863281 -14.953125 13.53125 -14.46875 14.03125 -13.84375 C 14.53125 -13.21875 14.882812 -12.472656 15.09375 -11.609375 C 15.300781 -10.742188 15.40625 -9.785156 15.40625 -8.734375 L 15.40625 0 L 11.015625 0 L 11.015625 -8.203125 C 11.015625 -9.609375 10.832031 -10.601562 10.46875 -11.1875 C 10.113281 -11.78125 9.445312 -12.078125 8.46875 -12.078125 C 8.070312 -12.078125 7.703125 -12.039062 7.359375 -11.96875 C 7.015625 -11.90625 6.707031 -11.832031 6.4375 -11.75 L 6.4375 0 Z M 2.0625 0 "/></g></g></g><g fill="#000000" fill-opacity="1"><g transform="translate(144.584153, 33.795919)"><g><path d="M 11.96875 -7.84375 C 11.96875 -10.664062 10.925781 -12.078125 8.84375 -12.078125 C 8.394531 -12.078125 7.945312 -12.019531 7.5 -11.90625 C 7.0625 -11.789062 6.707031 -11.644531 6.4375 -11.46875 L 6.4375 -3.5 C 6.65625 -3.457031 6.929688 -3.421875 7.265625 -3.390625 C 7.597656 -3.359375 7.957031 -3.34375 8.34375 -3.34375 C 9.539062 -3.34375 10.441406 -3.753906 11.046875 -4.578125 C 11.660156 -5.398438 11.96875 -6.488281 11.96875 -7.84375 Z M 16.421875 -7.734375 C 16.421875 -6.492188 16.238281 -5.375 15.875 -4.375 C 15.519531 -3.375 15 -2.519531 14.3125 -1.8125 C 13.625 -1.113281 12.78125 -0.570312 11.78125 -0.1875 C 10.78125 0.1875 9.644531 0.375 8.375 0.375 C 7.84375 0.375 7.285156 0.347656 6.703125 0.296875 C 6.128906 0.253906 5.5625 0.191406 5 0.109375 C 4.445312 0.0351562 3.914062 -0.0507812 3.40625 -0.15625 C 2.894531 -0.269531 2.445312 -0.382812 2.0625 -0.5 L 2.0625 -22.109375 L 6.4375 -22.8125 L 6.4375 -15.109375 C 6.925781 -15.328125 7.4375 -15.492188 7.96875 -15.609375 C 8.5 -15.722656 9.066406 -15.78125 9.671875 -15.78125 C 10.765625 -15.78125 11.734375 -15.585938 12.578125 -15.203125 C 13.421875 -14.828125 14.125 -14.285156 14.6875 -13.578125 C 15.257812 -12.867188 15.691406 -12.019531 15.984375 -11.03125 C 16.273438 -10.039062 16.421875 -8.941406 16.421875 -7.734375 Z M 16.421875 -7.734375 "/></g></g></g><g fill="#000000" fill-opacity="1"><g transform="translate(162.334337, 33.795919)"><g><path d="M 16.515625 -7.765625 C 16.515625 -6.546875 16.335938 -5.429688 15.984375 -4.421875 C 15.628906 -3.410156 15.117188 -2.546875 14.453125 -1.828125 C 13.785156 -1.117188 12.988281 -0.566406 12.0625 -0.171875 C 11.132812 0.210938 10.09375 0.40625 8.9375 0.40625 C 7.800781 0.40625 6.765625 0.210938 5.828125 -0.171875 C 4.898438 -0.566406 4.101562 -1.117188 3.4375 -1.828125 C 2.769531 -2.546875 2.25 -3.410156 1.875 -4.421875 C 1.507812 -5.429688 1.328125 -6.546875 1.328125 -7.765625 C 1.328125 -8.972656 1.515625 -10.078125 1.890625 -11.078125 C 2.273438 -12.078125 2.804688 -12.925781 3.484375 -13.625 C 4.160156 -14.332031 4.960938 -14.882812 5.890625 -15.28125 C 6.816406 -15.675781 7.832031 -15.875 8.9375 -15.875 C 10.050781 -15.875 11.070312 -15.675781 12 -15.28125 C 12.9375 -14.882812 13.738281 -14.332031 14.40625 -13.625 C 15.070312 -12.925781 15.585938 -12.078125 15.953125 -11.078125 C 16.328125 -10.078125 16.515625 -8.972656 16.515625 -7.765625 Z M 12.046875 -7.765625 C 12.046875 -9.109375 11.773438 -10.164062 11.234375 -10.9375 C 10.703125 -11.71875 9.9375 -12.109375 8.9375 -12.109375 C 7.9375 -12.109375 7.160156 -11.71875 6.609375 -10.9375 C 6.066406 -10.164062 5.796875 -9.109375 5.796875 -7.765625 C 5.796875 -6.410156 6.066406 -5.332031 6.609375 -4.53125 C 7.160156 -3.738281 7.9375 -3.34375 8.9375 -3.34375 C 9.9375 -3.34375 10.703125 -3.738281 11.234375 -4.53125 C 11.773438 -5.332031 12.046875 -6.410156 12.046875 -7.765625 Z M 12.046875 -7.765625 "/></g></g></g><g fill="#000000" fill-opacity="1"><g transform="translate(180.172692, 33.795919)"><g><path d="M 11.375 -11.578125 C 10.976562 -11.679688 10.515625 -11.785156 9.984375 -11.890625 C 9.460938 -11.992188 8.894531 -12.046875 8.28125 -12.046875 C 8.007812 -12.046875 7.679688 -12.019531 7.296875 -11.96875 C 6.921875 -11.925781 6.632812 -11.875 6.4375 -11.8125 L 6.4375 0 L 2.0625 0 L 2.0625 -14.640625 C 2.84375 -14.910156 3.765625 -15.164062 4.828125 -15.40625 C 5.898438 -15.65625 7.09375 -15.78125 8.40625 -15.78125 C 8.644531 -15.78125 8.925781 -15.765625 9.25 -15.734375 C 9.582031 -15.703125 9.914062 -15.660156 10.25 -15.609375 C 10.582031 -15.566406 10.914062 -15.507812 11.25 -15.4375 C 11.582031 -15.375 11.867188 -15.289062 12.109375 -15.1875 Z M 11.375 -11.578125 "/></g></g></g><g fill="#000000" fill-opacity="1"><g transform="translate(192.574317, 33.795919)"><g><path d="M 8.234375 0.296875 C 6.953125 0.273438 5.914062 0.140625 5.125 -0.109375 C 4.332031 -0.367188 3.707031 -0.726562 3.25 -1.1875 C 2.789062 -1.644531 2.476562 -2.203125 2.3125 -2.859375 C 2.144531 -3.515625 2.0625 -4.253906 2.0625 -5.078125 L 2.0625 -22.109375 L 6.4375 -22.8125 L 6.4375 -5.96875 C 6.4375 -5.570312 6.460938 -5.21875 6.515625 -4.90625 C 6.578125 -4.59375 6.691406 -4.328125 6.859375 -4.109375 C 7.023438 -3.898438 7.265625 -3.722656 7.578125 -3.578125 C 7.890625 -3.441406 8.3125 -3.359375 8.84375 -3.328125 Z M 8.234375 0.296875 "/></g></g></g><g fill="#000000" fill-opacity="1"><g transform="translate(201.860835, 33.795919)"><g><path d="M 15.78125 -15.453125 C 14.894531 -12.472656 13.972656 -9.679688 13.015625 -7.078125 C 12.054688 -4.472656 11.007812 -1.945312 9.875 0.5 C 9.46875 1.382812 9.054688 2.132812 8.640625 2.75 C 8.234375 3.363281 7.78125 3.867188 7.28125 4.265625 C 6.789062 4.671875 6.238281 4.96875 5.625 5.15625 C 5.007812 5.34375 4.289062 5.4375 3.46875 5.4375 C 2.78125 5.4375 2.144531 5.375 1.5625 5.25 C 0.988281 5.125 0.515625 4.976562 0.140625 4.8125 L 0.90625 1.328125 C 1.363281 1.484375 1.765625 1.585938 2.109375 1.640625 C 2.460938 1.703125 2.835938 1.734375 3.234375 1.734375 C 4.015625 1.734375 4.613281 1.519531 5.03125 1.09375 C 5.457031 0.675781 5.816406 0.0976562 6.109375 -0.640625 C 5.109375 -2.597656 4.109375 -4.796875 3.109375 -7.234375 C 2.109375 -9.679688 1.171875 -12.421875 0.296875 -15.453125 L 4.9375 -15.453125 C 5.132812 -14.691406 5.363281 -13.863281 5.625 -12.96875 C 5.894531 -12.082031 6.175781 -11.179688 6.46875 -10.265625 C 6.757812 -9.359375 7.054688 -8.472656 7.359375 -7.609375 C 7.660156 -6.742188 7.953125 -5.960938 8.234375 -5.265625 C 8.484375 -5.960938 8.742188 -6.742188 9.015625 -7.609375 C 9.296875 -8.472656 9.566406 -9.359375 9.828125 -10.265625 C 10.097656 -11.179688 10.351562 -12.082031 10.59375 -12.96875 C 10.84375 -13.863281 11.0625 -14.691406 11.25 -15.453125 Z M 15.78125 -15.453125 "/></g></g></g></svg>