<svg xmlns="http://www.w3.org/2000/svg" xmlns:xlink="http://www.w3.org/1999/xlink" width="500" zoomAndPan="magnify" viewBox="0 0 375 374.999991" height="500" preserveAspectRatio="xMidYMid meet" version="1.0"><defs><filter x="0%" y="0%" width="100%" height="100%" id="1acb2acb78"><feColorMatrix values="0 0 0 0 1 0 0 0 0 1 0 0 0 0 1 0 0 0 1 0" color-interpolation-filters="sRGB"/></filter><mask id="a744faec5b"><g filter="url(#1acb2acb78)"><rect x="-37.5" width="450" fill="#000000" y="-37.499999" height="449.999989" fill-opacity="0.8"/></g></mask><clipPath id="2391d6f6aa"><path d="M 0.148438 0.296875 L 198.851562 0.296875 L 198.851562 199 L 0.148438 199 Z M 0.148438 0.296875 " clip-rule="nonzero"/></clipPath><clipPath id="f22658d909"><path d="M 99.5 0.296875 C 44.628906 0.296875 0.148438 44.777344 0.148438 99.648438 C 0.148438 154.519531 44.628906 199 99.5 199 C 154.371094 199 198.851562 154.519531 198.851562 99.648438 C 198.851562 44.777344 154.371094 0.296875 99.5 0.296875 " clip-rule="nonzero"/></clipPath><clipPath id="deef956619"><rect x="0" width="200" y="0" height="200"/></clipPath><mask id="bec863a492"><g filter="url(#1acb2acb78)"><rect x="-37.5" width="450" fill="#000000" y="-37.499999" height="449.999989" fill-opacity="0.8"/></g></mask><clipPath id="3ad37f3331"><path d="M 0.785156 0.148438 L 199.488281 0.148438 L 199.488281 198.851562 L 0.785156 198.851562 Z M 0.785156 0.148438 " clip-rule="nonzero"/></clipPath><clipPath id="fd470774bc"><path d="M 100.136719 0.148438 C 45.265625 0.148438 0.785156 44.628906 0.785156 99.5 C 0.785156 154.371094 45.265625 198.851562 100.136719 198.851562 C 155.003906 198.851562 199.488281 154.371094 199.488281 99.5 C 199.488281 44.628906 155.003906 0.148438 100.136719 0.148438 " clip-rule="nonzero"/></clipPath><clipPath id="91e9a2759a"><rect x="0" width="200" y="0" height="200"/></clipPath><mask id="b56e2f445d"><g filter="url(#1acb2acb78)"><rect x="-37.5" width="450" fill="#000000" y="-37.499999" height="449.999989" fill-opacity="0.8"/></g></mask><clipPath id="78f5dec8de"><path d="M 0.511719 0.148438 L 199.214844 0.148438 L 199.214844 198.851562 L 0.511719 198.851562 Z M 0.511719 0.148438 " clip-rule="nonzero"/></clipPath><clipPath id="f0dbc5c28f"><path d="M 99.863281 0.148438 C 44.996094 0.148438 0.511719 44.628906 0.511719 99.5 C 0.511719 154.371094 44.996094 198.851562 99.863281 198.851562 C 154.734375 198.851562 199.214844 154.371094 199.214844 99.5 C 199.214844 44.628906 154.734375 0.148438 99.863281 0.148438 " clip-rule="nonzero"/></clipPath><clipPath id="302dfb7f59"><rect x="0" width="200" y="0" height="200"/></clipPath><mask id="b68e1ce099"><g filter="url(#1acb2acb78)"><rect x="-37.5" width="450" fill="#000000" y="-37.499999" height="449.999989" fill-opacity="0.8"/></g></mask><clipPath id="fd61cff98d"><path d="M 0.148438 1 L 198.851562 1 L 198.851562 199.703125 L 0.148438 199.703125 Z M 0.148438 1 " clip-rule="nonzero"/></clipPath><clipPath id="e01bb2aacf"><path d="M 99.5 1 C 44.628906 1 0.148438 45.480469 0.148438 100.351562 C 0.148438 155.222656 44.628906 199.703125 99.5 199.703125 C 154.371094 199.703125 198.851562 155.222656 198.851562 100.351562 C 198.851562 45.480469 154.371094 1 99.5 1 " clip-rule="nonzero"/></clipPath><clipPath id="2895cbd1f2"><rect x="0" width="200" y="0" height="200"/></clipPath></defs><g mask="url(#a744faec5b)"><g transform="matrix(1, 0, 0, 1, 88, 174)"><g clip-path="url(#deef956619)"><g clip-path="url(#2391d6f6aa)"><g clip-path="url(#f22658d909)"><path fill="#ffdd57" d="M 0.148438 0.296875 L 198.851562 0.296875 L 198.851562 199 L 0.148438 199 Z M 0.148438 0.296875 " fill-opacity="1" fill-rule="nonzero"/></g></g></g></g></g><g mask="url(#bec863a492)"><g transform="matrix(1, 0, 0, 1, 3, 88)"><g clip-path="url(#91e9a2759a)"><g clip-path="url(#3ad37f3331)"><g clip-path="url(#fd470774bc)"><path fill="#4cc877" d="M 0.785156 0.148438 L 199.488281 0.148438 L 199.488281 198.851562 L 0.785156 198.851562 Z M 0.785156 0.148438 " fill-opacity="1" fill-rule="nonzero"/></g></g></g></g></g><g mask="url(#b56e2f445d)"><g transform="matrix(1, 0, 0, 1, 172, 88)"><g clip-path="url(#302dfb7f59)"><g clip-path="url(#78f5dec8de)"><g clip-path="url(#f0dbc5c28f)"><path fill="#209cee" d="M 0.511719 0.148438 L 199.214844 0.148438 L 199.214844 198.851562 L 0.511719 198.851562 Z M 0.511719 0.148438 " fill-opacity="1" fill-rule="nonzero"/></g></g></g></g></g><g mask="url(#b68e1ce099)"><g transform="matrix(1, 0, 0, 1, 88, 1)"><g clip-path="url(#2895cbd1f2)"><g clip-path="url(#fd61cff98d)"><g clip-path="url(#e01bb2aacf)"><path fill="#ff3860" d="M 0.148438 1 L 198.851562 1 L 198.851562 199.703125 L 0.148438 199.703125 Z M 0.148438 1 " fill-opacity="1" fill-rule="nonzero"/></g></g></g></g></g></svg>