<svg xmlns="http://www.w3.org/2000/svg" xmlns:xlink="http://www.w3.org/1999/xlink" width="350" zoomAndPan="magnify" viewBox="0 0 262.5 48" height="64" preserveAspectRatio="xMidYMid meet" version="1.0"><defs><g/><clipPath id="7d4b109a17"><path d="M 7.144531 5 L 22 5 L 22 35 L 7.144531 35 Z M 7.144531 5 " clip-rule="nonzero"/></clipPath><clipPath id="192b4b88ff"><path d="M 7.144531 41 L 57.199219 41 L 57.199219 47.019531 L 7.144531 47.019531 Z M 7.144531 41 " clip-rule="nonzero"/></clipPath><clipPath id="85ed3bd41d"><path d="M 25 41 L 31 41 L 31 47.019531 L 25 47.019531 Z M 25 41 " clip-rule="nonzero"/></clipPath></defs><g fill="#363636" fill-opacity="1"><g transform="translate(67.803353, 35.921353)"><g><path d="M 19.25 0 C 17.675781 -2.800781 15.96875 -5.566406 14.125 -8.296875 C 12.289062 -11.035156 10.335938 -13.613281 8.265625 -16.03125 L 8.265625 0 L 2.828125 0 L 2.828125 -24.484375 L 7.3125 -24.484375 C 8.09375 -23.703125 8.953125 -22.742188 9.890625 -21.609375 C 10.835938 -20.484375 11.796875 -19.28125 12.765625 -18 C 13.742188 -16.71875 14.71875 -15.382812 15.6875 -14 C 16.65625 -12.625 17.5625 -11.300781 18.40625 -10.03125 L 18.40625 -24.484375 L 23.875 -24.484375 L 23.875 0 Z M 19.25 0 "/></g></g></g><g fill="#363636" fill-opacity="1"><g transform="translate(94.514683, 35.921353)"><g><path d="M 1.59375 -9.15625 C 1.59375 -10.800781 1.84375 -12.238281 2.34375 -13.46875 C 2.851562 -14.707031 3.519531 -15.738281 4.34375 -16.5625 C 5.164062 -17.394531 6.113281 -18.019531 7.1875 -18.4375 C 8.257812 -18.863281 9.363281 -19.078125 10.5 -19.078125 C 13.132812 -19.078125 15.21875 -18.269531 16.75 -16.65625 C 18.28125 -15.039062 19.046875 -12.664062 19.046875 -9.53125 C 19.046875 -9.226562 19.03125 -8.894531 19 -8.53125 C 18.976562 -8.164062 18.957031 -7.84375 18.9375 -7.5625 L 7 -7.5625 C 7.113281 -6.476562 7.617188 -5.617188 8.515625 -4.984375 C 9.410156 -4.347656 10.613281 -4.03125 12.125 -4.03125 C 13.082031 -4.03125 14.023438 -4.117188 14.953125 -4.296875 C 15.890625 -4.472656 16.648438 -4.691406 17.234375 -4.953125 L 17.953125 -0.671875 C 17.660156 -0.523438 17.28125 -0.378906 16.8125 -0.234375 C 16.34375 -0.0976562 15.816406 0.0195312 15.234375 0.125 C 14.660156 0.226562 14.046875 0.316406 13.390625 0.390625 C 12.734375 0.460938 12.070312 0.5 11.40625 0.5 C 9.738281 0.5 8.285156 0.253906 7.046875 -0.234375 C 5.804688 -0.734375 4.78125 -1.410156 3.96875 -2.265625 C 3.15625 -3.128906 2.554688 -4.148438 2.171875 -5.328125 C 1.785156 -6.503906 1.59375 -7.78125 1.59375 -9.15625 Z M 13.953125 -11.15625 C 13.929688 -11.601562 13.851562 -12.039062 13.71875 -12.46875 C 13.59375 -12.894531 13.394531 -13.269531 13.125 -13.59375 C 12.851562 -13.925781 12.507812 -14.195312 12.09375 -14.40625 C 11.6875 -14.625 11.175781 -14.734375 10.5625 -14.734375 C 9.976562 -14.734375 9.472656 -14.628906 9.046875 -14.421875 C 8.617188 -14.222656 8.265625 -13.957031 7.984375 -13.625 C 7.703125 -13.300781 7.484375 -12.921875 7.328125 -12.484375 C 7.171875 -12.046875 7.0625 -11.601562 7 -11.15625 Z M 13.953125 -11.15625 "/></g></g></g><g fill="#363636" fill-opacity="1"><g transform="translate(115.148836, 35.921353)"><g><path d="M 7.734375 0 L 2.46875 0 L 2.46875 -18.578125 L 7.734375 -18.578125 Z M 8.234375 -23.953125 C 8.234375 -22.984375 7.921875 -22.222656 7.296875 -21.671875 C 6.671875 -21.117188 5.9375 -20.84375 5.09375 -20.84375 C 4.238281 -20.84375 3.5 -21.117188 2.875 -21.671875 C 2.25 -22.222656 1.9375 -22.984375 1.9375 -23.953125 C 1.9375 -24.921875 2.25 -25.679688 2.875 -26.234375 C 3.5 -26.785156 4.238281 -27.0625 5.09375 -27.0625 C 5.9375 -27.0625 6.671875 -26.785156 7.296875 -26.234375 C 7.921875 -25.679688 8.234375 -24.921875 8.234375 -23.953125 Z M 8.234375 -23.953125 "/></g></g></g><g fill="#363636" fill-opacity="1"><g transform="translate(125.359906, 35.921353)"><g><path d="M 6.953125 -9.890625 C 6.953125 -6.941406 8.144531 -5.46875 10.53125 -5.46875 C 11.070312 -5.46875 11.578125 -5.539062 12.046875 -5.6875 C 12.515625 -5.832031 12.914062 -6 13.25 -6.1875 L 13.25 -14.59375 C 12.988281 -14.632812 12.679688 -14.671875 12.328125 -14.703125 C 11.972656 -14.742188 11.5625 -14.765625 11.09375 -14.765625 C 9.707031 -14.765625 8.671875 -14.304688 7.984375 -13.390625 C 7.296875 -12.472656 6.953125 -11.304688 6.953125 -9.890625 Z M 18.515625 -2.328125 C 18.515625 0.703125 17.742188 2.953125 16.203125 4.421875 C 14.660156 5.898438 12.273438 6.640625 9.046875 6.640625 C 7.910156 6.640625 6.773438 6.539062 5.640625 6.34375 C 4.515625 6.144531 3.472656 5.878906 2.515625 5.546875 L 3.421875 1.125 C 4.242188 1.457031 5.109375 1.71875 6.015625 1.90625 C 6.929688 2.09375 7.960938 2.1875 9.109375 2.1875 C 10.617188 2.1875 11.6875 1.859375 12.3125 1.203125 C 12.9375 0.546875 13.25 -0.300781 13.25 -1.34375 L 13.25 -2.015625 C 12.6875 -1.753906 12.101562 -1.554688 11.5 -1.421875 C 10.894531 -1.296875 10.238281 -1.234375 9.53125 -1.234375 C 6.96875 -1.234375 5.003906 -1.992188 3.640625 -3.515625 C 2.273438 -5.035156 1.59375 -7.160156 1.59375 -9.890625 C 1.59375 -11.253906 1.800781 -12.492188 2.21875 -13.609375 C 2.644531 -14.734375 3.265625 -15.695312 4.078125 -16.5 C 4.890625 -17.300781 5.882812 -17.914062 7.0625 -18.34375 C 8.238281 -18.78125 9.570312 -19 11.0625 -19 C 11.695312 -19 12.347656 -18.96875 13.015625 -18.90625 C 13.691406 -18.851562 14.359375 -18.78125 15.015625 -18.6875 C 15.671875 -18.59375 16.300781 -18.476562 16.90625 -18.34375 C 17.507812 -18.21875 18.046875 -18.085938 18.515625 -17.953125 Z M 18.515625 -2.328125 "/></g></g></g><g fill="#363636" fill-opacity="1"><g transform="translate(146.347379, 35.921353)"><g><path d="M 2.46875 0 L 2.46875 -26.5625 L 7.734375 -27.421875 L 7.734375 -18.515625 C 8.085938 -18.628906 8.539062 -18.738281 9.09375 -18.84375 C 9.644531 -18.945312 10.179688 -19 10.703125 -19 C 12.210938 -19 13.46875 -18.789062 14.46875 -18.375 C 15.46875 -17.96875 16.265625 -17.390625 16.859375 -16.640625 C 17.460938 -15.890625 17.890625 -14.992188 18.140625 -13.953125 C 18.390625 -12.921875 18.515625 -11.769531 18.515625 -10.5 L 18.515625 0 L 13.25 0 L 13.25 -9.859375 C 13.25 -11.554688 13.03125 -12.753906 12.59375 -13.453125 C 12.15625 -14.160156 11.347656 -14.515625 10.171875 -14.515625 C 9.703125 -14.515625 9.257812 -14.472656 8.84375 -14.390625 C 8.4375 -14.304688 8.066406 -14.21875 7.734375 -14.125 L 7.734375 0 Z M 2.46875 0 "/></g></g></g><g fill="#363636" fill-opacity="1"><g transform="translate(167.158191, 35.921353)"><g><path d="M 14.375 -9.4375 C 14.375 -12.820312 13.128906 -14.515625 10.640625 -14.515625 C 10.097656 -14.515625 9.5625 -14.441406 9.03125 -14.296875 C 8.5 -14.160156 8.066406 -13.988281 7.734375 -13.78125 L 7.734375 -4.203125 C 7.992188 -4.160156 8.320312 -4.117188 8.71875 -4.078125 C 9.125 -4.046875 9.5625 -4.03125 10.03125 -4.03125 C 11.46875 -4.03125 12.550781 -4.523438 13.28125 -5.515625 C 14.007812 -6.503906 14.375 -7.8125 14.375 -9.4375 Z M 19.75 -9.296875 C 19.75 -7.804688 19.53125 -6.460938 19.09375 -5.265625 C 18.65625 -4.066406 18.023438 -3.039062 17.203125 -2.1875 C 16.378906 -1.34375 15.363281 -0.691406 14.15625 -0.234375 C 12.957031 0.222656 11.59375 0.453125 10.0625 0.453125 C 9.425781 0.453125 8.757812 0.421875 8.0625 0.359375 C 7.375 0.304688 6.691406 0.234375 6.015625 0.140625 C 5.347656 0.046875 4.707031 -0.0625 4.09375 -0.1875 C 3.476562 -0.320312 2.9375 -0.457031 2.46875 -0.59375 L 2.46875 -26.5625 L 7.734375 -27.421875 L 7.734375 -18.15625 C 8.328125 -18.414062 8.941406 -18.613281 9.578125 -18.75 C 10.210938 -18.894531 10.894531 -18.96875 11.625 -18.96875 C 12.9375 -18.96875 14.097656 -18.738281 15.109375 -18.28125 C 16.128906 -17.820312 16.976562 -17.164062 17.65625 -16.3125 C 18.34375 -15.46875 18.863281 -14.453125 19.21875 -13.265625 C 19.570312 -12.078125 19.75 -10.753906 19.75 -9.296875 Z M 19.75 -9.296875 "/></g></g></g><g fill="#363636" fill-opacity="1"><g transform="translate(188.498983, 35.921353)"><g><path d="M 19.859375 -9.328125 C 19.859375 -7.867188 19.644531 -6.53125 19.21875 -5.3125 C 18.789062 -4.101562 18.175781 -3.066406 17.375 -2.203125 C 16.582031 -1.347656 15.625 -0.679688 14.5 -0.203125 C 13.382812 0.265625 12.128906 0.5 10.734375 0.5 C 9.367188 0.5 8.125 0.265625 7 -0.203125 C 5.882812 -0.679688 4.925781 -1.347656 4.125 -2.203125 C 3.332031 -3.066406 2.710938 -4.101562 2.265625 -5.3125 C 1.816406 -6.53125 1.59375 -7.867188 1.59375 -9.328125 C 1.59375 -10.785156 1.820312 -12.113281 2.28125 -13.3125 C 2.738281 -14.519531 3.375 -15.546875 4.1875 -16.390625 C 5 -17.242188 5.960938 -17.90625 7.078125 -18.375 C 8.203125 -18.84375 9.421875 -19.078125 10.734375 -19.078125 C 12.078125 -19.078125 13.304688 -18.84375 14.421875 -18.375 C 15.546875 -17.90625 16.507812 -17.242188 17.3125 -16.390625 C 18.113281 -15.546875 18.738281 -14.519531 19.1875 -13.3125 C 19.632812 -12.113281 19.859375 -10.785156 19.859375 -9.328125 Z M 14.484375 -9.328125 C 14.484375 -10.953125 14.160156 -12.226562 13.515625 -13.15625 C 12.867188 -14.09375 11.941406 -14.5625 10.734375 -14.5625 C 9.535156 -14.5625 8.601562 -14.09375 7.9375 -13.15625 C 7.28125 -12.226562 6.953125 -10.953125 6.953125 -9.328125 C 6.953125 -7.703125 7.28125 -6.410156 7.9375 -5.453125 C 8.601562 -4.503906 9.535156 -4.03125 10.734375 -4.03125 C 11.941406 -4.03125 12.867188 -4.503906 13.515625 -5.453125 C 14.160156 -6.410156 14.484375 -7.703125 14.484375 -9.328125 Z M 14.484375 -9.328125 "/></g></g></g><g fill="#363636" fill-opacity="1"><g transform="translate(209.945782, 35.921353)"><g><path d="M 13.671875 -13.921875 C 13.203125 -14.035156 12.648438 -14.15625 12.015625 -14.28125 C 11.378906 -14.414062 10.695312 -14.484375 9.96875 -14.484375 C 9.632812 -14.484375 9.238281 -14.453125 8.78125 -14.390625 C 8.320312 -14.335938 7.972656 -14.273438 7.734375 -14.203125 L 7.734375 0 L 2.46875 0 L 2.46875 -17.59375 C 3.414062 -17.925781 4.53125 -18.238281 5.8125 -18.53125 C 7.09375 -18.820312 8.523438 -18.96875 10.109375 -18.96875 C 10.390625 -18.96875 10.726562 -18.945312 11.125 -18.90625 C 11.53125 -18.875 11.929688 -18.828125 12.328125 -18.765625 C 12.734375 -18.710938 13.132812 -18.644531 13.53125 -18.5625 C 13.925781 -18.476562 14.269531 -18.378906 14.5625 -18.265625 Z M 13.671875 -13.921875 "/></g></g></g><g fill="#363636" fill-opacity="1"><g transform="translate(224.856078, 35.921353)"><g><path d="M 9.890625 0.359375 C 8.359375 0.328125 7.113281 0.160156 6.15625 -0.140625 C 5.207031 -0.441406 4.457031 -0.867188 3.90625 -1.421875 C 3.351562 -1.984375 2.972656 -2.65625 2.765625 -3.4375 C 2.566406 -4.226562 2.46875 -5.117188 2.46875 -6.109375 L 2.46875 -26.5625 L 7.734375 -27.421875 L 7.734375 -7.171875 C 7.734375 -6.703125 7.769531 -6.273438 7.84375 -5.890625 C 7.914062 -5.515625 8.050781 -5.195312 8.25 -4.9375 C 8.445312 -4.6875 8.734375 -4.476562 9.109375 -4.3125 C 9.492188 -4.144531 10.003906 -4.035156 10.640625 -3.984375 Z M 9.890625 0.359375 "/></g></g></g><g fill="#363636" fill-opacity="1"><g transform="translate(236.021127, 35.921353)"><g><path d="M 18.96875 -18.578125 C 17.90625 -15.003906 16.796875 -11.648438 15.640625 -8.515625 C 14.492188 -5.378906 13.238281 -2.34375 11.875 0.59375 C 11.375 1.65625 10.875 2.554688 10.375 3.296875 C 9.882812 4.046875 9.34375 4.660156 8.75 5.140625 C 8.164062 5.617188 7.503906 5.96875 6.765625 6.1875 C 6.023438 6.414062 5.160156 6.53125 4.171875 6.53125 C 3.347656 6.53125 2.585938 6.453125 1.890625 6.296875 C 1.191406 6.148438 0.617188 5.984375 0.171875 5.796875 L 1.09375 1.59375 C 1.632812 1.78125 2.113281 1.90625 2.53125 1.96875 C 2.957031 2.039062 3.410156 2.078125 3.890625 2.078125 C 4.828125 2.078125 5.546875 1.820312 6.046875 1.3125 C 6.554688 0.8125 6.988281 0.113281 7.34375 -0.78125 C 6.144531 -3.132812 4.941406 -5.773438 3.734375 -8.703125 C 2.535156 -11.640625 1.410156 -14.929688 0.359375 -18.578125 L 5.9375 -18.578125 C 6.164062 -17.660156 6.441406 -16.664062 6.765625 -15.59375 C 7.085938 -14.519531 7.421875 -13.4375 7.765625 -12.34375 C 8.117188 -11.25 8.476562 -10.179688 8.84375 -9.140625 C 9.207031 -8.109375 9.554688 -7.171875 9.890625 -6.328125 C 10.191406 -7.171875 10.507812 -8.109375 10.84375 -9.140625 C 11.175781 -10.179688 11.5 -11.25 11.8125 -12.34375 C 12.132812 -13.4375 12.441406 -14.519531 12.734375 -15.59375 C 13.023438 -16.664062 13.289062 -17.660156 13.53125 -18.578125 Z M 18.96875 -18.578125 "/></g></g></g><path fill="#ffcc4d" d="M 15.445312 42.964844 C 15.253906 36.53125 14.742188 31.914062 14.136719 31.914062 C 13.535156 31.914062 13.023438 36.53125 12.832031 42.964844 Z M 15.445312 42.964844 " fill-opacity="1" fill-rule="nonzero"/><path fill="#a6d388" d="M 29.398438 25.589844 C 29.398438 32.558594 26.292969 34.675781 22.460938 34.675781 C 18.628906 34.675781 15.523438 32.558594 15.523438 25.589844 C 15.523438 18.621094 21.074219 8.425781 22.460938 8.425781 C 23.847656 8.425781 29.398438 18.621094 29.398438 25.589844 Z M 29.398438 25.589844 " fill-opacity="1" fill-rule="nonzero"/><g clip-path="url(#7d4b109a17)"><path fill="#77b255" d="M 21.074219 24.632812 C 21.074219 32.335938 17.96875 34.675781 14.136719 34.675781 C 10.308594 34.675781 7.199219 32.335938 7.199219 24.632812 C 7.199219 16.929688 12.75 5.664062 14.136719 5.664062 C 15.523438 5.664062 21.074219 16.929688 21.074219 24.632812 Z M 21.074219 24.632812 " fill-opacity="1" fill-rule="nonzero"/></g><path fill="#ffe8b6" d="M 18.300781 19.480469 L 36.332031 1.519531 L 54.367188 19.480469 L 54.367188 41.582031 L 18.300781 41.582031 Z M 18.300781 19.480469 " fill-opacity="1" fill-rule="nonzero"/><path fill="#ffffff" d="M 36.332031 19.480469 L 37.722656 19.480469 L 37.722656 41.582031 L 36.332031 41.582031 Z M 36.332031 19.480469 " fill-opacity="1" fill-rule="nonzero"/><path fill="#ffcc4d" d="M 18.300781 19.480469 L 19.6875 19.480469 L 19.6875 41.582031 L 18.300781 41.582031 Z M 52.980469 19.480469 L 54.367188 19.480469 L 54.367188 41.582031 L 52.980469 41.582031 Z M 52.980469 19.480469 " fill-opacity="1" fill-rule="nonzero"/><path fill="#66757f" d="M 54.367188 20.859375 C 54.011719 20.859375 53.65625 20.726562 53.386719 20.457031 L 36.332031 3.472656 L 19.28125 20.457031 C 18.738281 20.996094 17.859375 20.996094 17.320312 20.457031 C 16.777344 19.917969 16.777344 19.042969 17.320312 18.503906 L 35.351562 0.542969 C 35.894531 0.00390625 36.773438 0.00390625 37.3125 0.542969 L 55.347656 18.503906 C 55.890625 19.042969 55.890625 19.917969 55.347656 20.457031 C 55.078125 20.726562 54.722656 20.859375 54.367188 20.859375 Z M 54.367188 20.859375 " fill-opacity="1" fill-rule="nonzero"/><path fill="#66757f" d="M 36.332031 20.859375 C 35.976562 20.859375 35.625 20.726562 35.351562 20.457031 C 34.808594 19.917969 34.808594 19.042969 35.351562 18.503906 L 44.371094 9.523438 C 44.914062 8.984375 45.789062 8.984375 46.332031 9.523438 C 46.875 10.0625 46.875 10.9375 46.332031 11.476562 L 37.3125 20.457031 C 37.042969 20.726562 36.6875 20.859375 36.332031 20.859375 Z M 36.332031 20.859375 " fill-opacity="1" fill-rule="nonzero"/><path fill="#c1694f" d="M 25.234375 33.292969 L 30.785156 33.292969 L 30.785156 41.582031 L 25.234375 41.582031 Z M 25.234375 33.292969 " fill-opacity="1" fill-rule="nonzero"/><path fill="#55acee" d="M 43.269531 33.292969 L 47.433594 33.292969 L 47.433594 38.820312 L 43.269531 38.820312 Z M 43.269531 33.292969 " fill-opacity="1" fill-rule="nonzero"/><path fill="#55acee" d="M 41.882812 33.292969 L 44.65625 33.292969 L 44.65625 38.820312 L 41.882812 38.820312 Z M 46.042969 33.292969 L 48.820312 33.292969 L 48.820312 38.820312 L 46.042969 38.820312 Z M 25.234375 20.859375 L 30.785156 20.859375 L 30.785156 26.386719 L 25.234375 26.386719 Z M 41.882812 20.859375 L 48.820312 20.859375 L 48.820312 26.386719 L 41.882812 26.386719 Z M 41.882812 20.859375 " fill-opacity="1" fill-rule="nonzero"/><g clip-path="url(#192b4b88ff)"><path fill="#5c913b" d="M 57.140625 44.347656 C 57.140625 45.871094 55.898438 47.109375 54.367188 47.109375 L 9.976562 47.109375 C 8.445312 47.109375 7.199219 45.871094 7.199219 44.347656 C 7.199219 42.820312 8.445312 41.582031 9.976562 41.582031 L 54.367188 41.582031 C 55.898438 41.582031 57.140625 42.820312 57.140625 44.347656 Z M 57.140625 44.347656 " fill-opacity="1" fill-rule="nonzero"/></g><g clip-path="url(#85ed3bd41d)"><path fill="#ffffff" d="M 25.234375 41.582031 L 30.785156 41.582031 L 30.785156 47.109375 L 25.234375 47.109375 Z M 25.234375 41.582031 " fill-opacity="1" fill-rule="nonzero"/></g></svg>