<svg xmlns="http://www.w3.org/2000/svg" xmlns:xlink="http://www.w3.org/1999/xlink" width="250" zoomAndPan="magnify" viewBox="0 0 187.5 48" height="64" preserveAspectRatio="xMidYMid meet" version="1.0"><defs><filter x="0%" y="0%" width="100%" height="100%" id="71312ce297"><feColorMatrix values="0 0 0 0 1 0 0 0 0 1 0 0 0 0 1 0 0 0 1 0" color-interpolation-filters="sRGB"/></filter><g/><clipPath id="f5cd699618"><path d="M 16 21 L 42 21 L 42 47.019531 L 16 47.019531 Z M 16 21 " clip-rule="nonzero"/></clipPath><mask id="733a79e253"><g filter="url(#71312ce297)"><rect x="-18.75" width="225" fill="#000000" y="-4.8" height="57.6" fill-opacity="0.8"/></g></mask><clipPath id="749e1db060"><path d="M 0.0742188 0.894531 L 25.324219 0.894531 L 25.324219 26.019531 L 0.0742188 26.019531 Z M 0.0742188 0.894531 " clip-rule="nonzero"/></clipPath><clipPath id="4a45332fd4"><path d="M 12.699219 0.894531 C 5.726562 0.894531 0.0742188 6.546875 0.0742188 13.519531 C 0.0742188 20.492188 5.726562 26.144531 12.699219 26.144531 C 19.671875 26.144531 25.324219 20.492188 25.324219 13.519531 C 25.324219 6.546875 19.671875 0.894531 12.699219 0.894531 " clip-rule="nonzero"/></clipPath><clipPath id="7eda000b5a"><rect x="0" width="26" y="0" height="27"/></clipPath><mask id="367d7d8d59"><g filter="url(#71312ce297)"><rect x="-18.75" width="225" fill="#000000" y="-4.8" height="57.6" fill-opacity="0.8"/></g></mask><clipPath id="283c7eae2c"><path d="M 0.351562 0.949219 L 25.601562 0.949219 L 25.601562 26.199219 L 0.351562 26.199219 Z M 0.351562 0.949219 " clip-rule="nonzero"/></clipPath><clipPath id="e60898211d"><path d="M 12.976562 0.949219 C 6.003906 0.949219 0.351562 6.601562 0.351562 13.574219 C 0.351562 20.546875 6.003906 26.199219 12.976562 26.199219 C 19.949219 26.199219 25.601562 20.546875 25.601562 13.574219 C 25.601562 6.601562 19.949219 0.949219 12.976562 0.949219 " clip-rule="nonzero"/></clipPath><clipPath id="5dc13174ce"><rect x="0" width="26" y="0" height="27"/></clipPath><mask id="cc3b79d0ab"><g filter="url(#71312ce297)"><rect x="-18.75" width="225" fill="#000000" y="-4.8" height="57.6" fill-opacity="0.8"/></g></mask><clipPath id="8946fae487"><path d="M 0.792969 0.949219 L 26.042969 0.949219 L 26.042969 26.199219 L 0.792969 26.199219 Z M 0.792969 0.949219 " clip-rule="nonzero"/></clipPath><clipPath id="b4032b3528"><path d="M 13.417969 0.949219 C 6.445312 0.949219 0.792969 6.601562 0.792969 13.574219 C 0.792969 20.546875 6.445312 26.199219 13.417969 26.199219 C 20.390625 26.199219 26.042969 20.546875 26.042969 13.574219 C 26.042969 6.601562 20.390625 0.949219 13.417969 0.949219 " clip-rule="nonzero"/></clipPath><clipPath id="f3b191486d"><rect x="0" width="27" y="0" height="27"/></clipPath><mask id="a14dd8b88b"><g filter="url(#71312ce297)"><rect x="-18.75" width="225" fill="#000000" y="-4.8" height="57.6" fill-opacity="0.8"/></g></mask><clipPath id="5095cb402d"><path d="M 0.0742188 0 L 25.324219 0 L 25.324219 25.25 L 0.0742188 25.25 Z M 0.0742188 0 " clip-rule="nonzero"/></clipPath><clipPath id="54fcd44111"><path d="M 12.699219 0 C 5.726562 0 0.0742188 5.652344 0.0742188 12.625 C 0.0742188 19.597656 5.726562 25.25 12.699219 25.25 C 19.671875 25.25 25.324219 19.597656 25.324219 12.625 C 25.324219 5.652344 19.671875 0 12.699219 0 " clip-rule="nonzero"/></clipPath><clipPath id="614b261b6e"><rect x="0" width="26" y="0" height="26"/></clipPath></defs><g clip-path="url(#f5cd699618)"><g mask="url(#733a79e253)"><g transform="matrix(1, 0, 0, 1, 16, 21)"><g clip-path="url(#7eda000b5a)"><g clip-path="url(#749e1db060)"><g clip-path="url(#4a45332fd4)"><path fill="#ffdd57" d="M 0.0742188 0.894531 L 25.324219 0.894531 L 25.324219 26.144531 L 0.0742188 26.144531 Z M 0.0742188 0.894531 " fill-opacity="1" fill-rule="nonzero"/></g></g></g></g></g></g><g mask="url(#367d7d8d59)"><g transform="matrix(1, 0, 0, 1, 5, 10)"><g clip-path="url(#5dc13174ce)"><g clip-path="url(#283c7eae2c)"><g clip-path="url(#e60898211d)"><path fill="#4cc877" d="M 0.351562 0.949219 L 25.601562 0.949219 L 25.601562 26.199219 L 0.351562 26.199219 Z M 0.351562 0.949219 " fill-opacity="1" fill-rule="nonzero"/></g></g></g></g></g><g mask="url(#cc3b79d0ab)"><g transform="matrix(1, 0, 0, 1, 26, 10)"><g clip-path="url(#f3b191486d)"><g clip-path="url(#8946fae487)"><g clip-path="url(#b4032b3528)"><path fill="#209cee" d="M 0.792969 0.949219 L 26.042969 0.949219 L 26.042969 26.199219 L 0.792969 26.199219 Z M 0.792969 0.949219 " fill-opacity="1" fill-rule="nonzero"/></g></g></g></g></g><g mask="url(#a14dd8b88b)"><g transform="matrix(1, 0, 0, 1, 16, 0.000000000000005041)"><g clip-path="url(#614b261b6e)"><g clip-path="url(#5095cb402d)"><g clip-path="url(#54fcd44111)"><path fill="#ff3860" d="M 0.0742188 0 L 25.324219 0 L 25.324219 25.25 L 0.0742188 25.25 Z M 0.0742188 0 " fill-opacity="1" fill-rule="nonzero"/></g></g></g></g></g><g fill="#000000" fill-opacity="1"><g transform="translate(59.108886, 32.412735)"><g><path d="M 5.15625 0 L 2.078125 0 L 2.078125 -16.046875 L 5.71875 -16.046875 L 12.15625 -5.703125 L 12.4375 -5.75 L 12.4375 -16.046875 L 15.484375 -16.046875 L 15.484375 0 L 12.25 0 L 5.4375 -11.03125 L 5.15625 -11 Z M 5.15625 0 "/></g></g><g transform="translate(76.694857, 32.412735)"><g><path d="M 11.953125 -5.359375 L 4.1875 -5.359375 C 4.269531 -4.304688 4.566406 -3.539062 5.078125 -3.0625 C 5.585938 -2.582031 6.285156 -2.34375 7.171875 -2.34375 C 7.867188 -2.34375 8.429688 -2.472656 8.859375 -2.734375 C 9.296875 -2.992188 9.644531 -3.390625 9.90625 -3.921875 L 10.140625 -3.921875 L 12.15625 -2.625 C 11.757812 -1.769531 11.160156 -1.078125 10.359375 -0.546875 C 9.566406 -0.0234375 8.503906 0.234375 7.171875 0.234375 C 5.921875 0.234375 4.835938 -0.00390625 3.921875 -0.484375 C 3.015625 -0.960938 2.316406 -1.671875 1.828125 -2.609375 C 1.335938 -3.546875 1.09375 -4.691406 1.09375 -6.046875 C 1.09375 -7.421875 1.347656 -8.578125 1.859375 -9.515625 C 2.378906 -10.460938 3.082031 -11.164062 3.96875 -11.625 C 4.851562 -12.09375 5.847656 -12.328125 6.953125 -12.328125 C 8.660156 -12.328125 9.96875 -11.875 10.875 -10.96875 C 11.789062 -10.0625 12.25 -8.734375 12.25 -6.984375 C 12.25 -6.335938 12.226562 -5.84375 12.1875 -5.5 Z M 9.34375 -7.328125 C 9.3125 -8.253906 9.097656 -8.925781 8.703125 -9.34375 C 8.304688 -9.757812 7.722656 -9.96875 6.953125 -9.96875 C 5.421875 -9.96875 4.519531 -9.085938 4.25 -7.328125 Z M 9.34375 -7.328125 "/></g></g><g transform="translate(89.848682, 32.412735)"><g><path d="M 3.265625 -13.546875 C 2.710938 -13.546875 2.265625 -13.710938 1.921875 -14.046875 C 1.578125 -14.378906 1.40625 -14.8125 1.40625 -15.34375 C 1.40625 -15.851562 1.578125 -16.273438 1.921875 -16.609375 C 2.265625 -16.941406 2.710938 -17.109375 3.265625 -17.109375 C 3.628906 -17.109375 3.953125 -17.03125 4.234375 -16.875 C 4.515625 -16.726562 4.734375 -16.519531 4.890625 -16.25 C 5.054688 -15.988281 5.140625 -15.6875 5.140625 -15.34375 C 5.140625 -15 5.054688 -14.691406 4.890625 -14.421875 C 4.734375 -14.148438 4.515625 -13.9375 4.234375 -13.78125 C 3.953125 -13.625 3.628906 -13.546875 3.265625 -13.546875 Z M 1.75 0 L 1.75 -12.09375 L 4.78125 -12.09375 L 4.78125 0 Z M 1.75 0 "/></g></g><g transform="translate(96.365255, 32.412735)"><g><path d="M 6.28125 5.140625 C 4.28125 5.140625 2.800781 4.84375 1.84375 4.25 C 0.894531 3.664062 0.421875 2.851562 0.421875 1.8125 C 0.421875 1.175781 0.625 0.65625 1.03125 0.25 C 1.4375 -0.15625 2.019531 -0.429688 2.78125 -0.578125 L 2.78125 -0.796875 C 2.375 -1.046875 2.082031 -1.320312 1.90625 -1.625 C 1.726562 -1.925781 1.640625 -2.28125 1.640625 -2.6875 C 1.640625 -3.65625 2.269531 -4.3125 3.53125 -4.65625 L 3.53125 -4.875 C 2.882812 -5.25 2.394531 -5.710938 2.0625 -6.265625 C 1.726562 -6.816406 1.5625 -7.484375 1.5625 -8.265625 C 1.5625 -9.078125 1.742188 -9.785156 2.109375 -10.390625 C 2.484375 -11.003906 3.023438 -11.476562 3.734375 -11.8125 C 4.453125 -12.15625 5.3125 -12.328125 6.3125 -12.328125 C 7.320312 -12.328125 8.125 -12.15625 8.71875 -11.8125 C 9.09375 -12.34375 9.3125 -12.96875 9.375 -13.6875 L 9.59375 -13.828125 L 11.78125 -13.28125 C 11.71875 -12.707031 11.550781 -12.222656 11.28125 -11.828125 C 11.007812 -11.441406 10.585938 -11.09375 10.015625 -10.78125 L 10.015625 -10.546875 C 10.691406 -9.941406 11.03125 -9.101562 11.03125 -8.03125 C 11.03125 -7.28125 10.84375 -6.609375 10.46875 -6.015625 C 10.101562 -5.429688 9.5625 -4.96875 8.84375 -4.625 C 8.132812 -4.28125 7.289062 -4.109375 6.3125 -4.109375 L 5.84375 -4.109375 C 5.550781 -4.128906 5.347656 -4.140625 5.234375 -4.140625 C 4.953125 -4.140625 4.734375 -4.0625 4.578125 -3.90625 C 4.421875 -3.757812 4.34375 -3.566406 4.34375 -3.328125 C 4.34375 -3.078125 4.441406 -2.878906 4.640625 -2.734375 C 4.847656 -2.585938 5.148438 -2.507812 5.546875 -2.5 L 8.265625 -2.40625 C 10.941406 -2.320312 12.28125 -1.171875 12.28125 1.046875 C 12.28125 1.835938 12.078125 2.535156 11.671875 3.140625 C 11.273438 3.753906 10.628906 4.238281 9.734375 4.59375 C 8.847656 4.957031 7.695312 5.140625 6.28125 5.140625 Z M 6.3125 -6.234375 C 6.894531 -6.234375 7.347656 -6.40625 7.671875 -6.75 C 8.003906 -7.09375 8.171875 -7.582031 8.171875 -8.21875 C 8.171875 -8.851562 8.003906 -9.335938 7.671875 -9.671875 C 7.347656 -10.015625 6.894531 -10.1875 6.3125 -10.1875 C 5.71875 -10.1875 5.257812 -10.015625 4.9375 -9.671875 C 4.613281 -9.335938 4.453125 -8.851562 4.453125 -8.21875 C 4.453125 -7.570312 4.613281 -7.078125 4.9375 -6.734375 C 5.257812 -6.398438 5.71875 -6.234375 6.3125 -6.234375 Z M 6.28125 2.921875 C 7.3125 2.921875 8.0625 2.773438 8.53125 2.484375 C 9.007812 2.191406 9.25 1.8125 9.25 1.34375 C 9.25 0.96875 9.128906 0.6875 8.890625 0.5 C 8.648438 0.320312 8.265625 0.226562 7.734375 0.21875 L 5.34375 0.109375 C 5.257812 0.109375 5.179688 0.101562 5.109375 0.09375 C 5.046875 0.09375 4.984375 0.09375 4.921875 0.09375 C 4.398438 0.09375 4.003906 0.203125 3.734375 0.421875 C 3.472656 0.640625 3.34375 0.941406 3.34375 1.328125 C 3.34375 1.835938 3.585938 2.226562 4.078125 2.5 C 4.566406 2.78125 5.300781 2.921875 6.28125 2.921875 Z M 6.28125 2.921875 "/></g></g><g transform="translate(108.948605, 32.412735)"><g><path d="M 1.75 0 L 1.75 -16.96875 L 4.78125 -16.96875 L 4.78125 -10.515625 L 5.015625 -10.484375 C 5.421875 -11.066406 5.914062 -11.519531 6.5 -11.84375 C 7.082031 -12.164062 7.785156 -12.328125 8.609375 -12.328125 C 11.273438 -12.328125 12.609375 -10.816406 12.609375 -7.796875 L 12.609375 0 L 9.578125 0 L 9.578125 -7.40625 C 9.578125 -8.226562 9.410156 -8.828125 9.078125 -9.203125 C 8.753906 -9.578125 8.242188 -9.765625 7.546875 -9.765625 C 6.703125 -9.765625 6.03125 -9.476562 5.53125 -8.90625 C 5.03125 -8.34375 4.78125 -7.460938 4.78125 -6.265625 L 4.78125 0 Z M 1.75 0 "/></g></g><g transform="translate(123.122701, 32.412735)"><g><path d="M 8.453125 0.234375 C 6.910156 0.234375 5.765625 -0.34375 5.015625 -1.5 L 4.78125 -1.453125 L 4.78125 0 L 1.75 0 L 1.75 -16.96875 L 4.78125 -16.96875 L 4.78125 -10.671875 L 5.015625 -10.625 C 5.429688 -11.207031 5.921875 -11.632812 6.484375 -11.90625 C 7.054688 -12.1875 7.738281 -12.328125 8.53125 -12.328125 C 9.507812 -12.328125 10.363281 -12.097656 11.09375 -11.640625 C 11.820312 -11.179688 12.390625 -10.476562 12.796875 -9.53125 C 13.210938 -8.59375 13.421875 -7.429688 13.421875 -6.046875 C 13.421875 -4.671875 13.207031 -3.507812 12.78125 -2.5625 C 12.351562 -1.625 11.765625 -0.921875 11.015625 -0.453125 C 10.273438 0.00390625 9.421875 0.234375 8.453125 0.234375 Z M 7.53125 -2.34375 C 8.425781 -2.34375 9.109375 -2.640625 9.578125 -3.234375 C 10.046875 -3.835938 10.28125 -4.773438 10.28125 -6.046875 C 10.28125 -7.328125 10.046875 -8.265625 9.578125 -8.859375 C 9.109375 -9.453125 8.425781 -9.75 7.53125 -9.75 C 6.675781 -9.75 6 -9.441406 5.5 -8.828125 C 5 -8.210938 4.75 -7.285156 4.75 -6.046875 C 4.75 -4.804688 5 -3.878906 5.5 -3.265625 C 6 -2.648438 6.675781 -2.34375 7.53125 -2.34375 Z M 7.53125 -2.34375 "/></g></g><g transform="translate(137.614946, 32.412735)"><g><path d="M 7.03125 0.234375 C 5.84375 0.234375 4.800781 -0.0078125 3.90625 -0.5 C 3.007812 -0.988281 2.316406 -1.703125 1.828125 -2.640625 C 1.335938 -3.578125 1.09375 -4.710938 1.09375 -6.046875 C 1.09375 -7.378906 1.335938 -8.515625 1.828125 -9.453125 C 2.316406 -10.398438 3.007812 -11.113281 3.90625 -11.59375 C 4.800781 -12.082031 5.84375 -12.328125 7.03125 -12.328125 C 8.21875 -12.328125 9.257812 -12.082031 10.15625 -11.59375 C 11.050781 -11.113281 11.742188 -10.398438 12.234375 -9.453125 C 12.734375 -8.515625 12.984375 -7.378906 12.984375 -6.046875 C 12.984375 -4.710938 12.734375 -3.578125 12.234375 -2.640625 C 11.742188 -1.703125 11.050781 -0.988281 10.15625 -0.5 C 9.257812 -0.0078125 8.21875 0.234375 7.03125 0.234375 Z M 7.03125 -2.34375 C 8.914062 -2.34375 9.859375 -3.578125 9.859375 -6.046875 C 9.859375 -7.328125 9.613281 -8.265625 9.125 -8.859375 C 8.644531 -9.453125 7.945312 -9.75 7.03125 -9.75 C 5.15625 -9.75 4.21875 -8.515625 4.21875 -6.046875 C 4.21875 -3.578125 5.15625 -2.34375 7.03125 -2.34375 Z M 7.03125 -2.34375 "/></g></g><g transform="translate(151.679335, 32.412735)"><g><path d="M 1.75 0 L 1.75 -12.09375 L 4.703125 -12.09375 L 4.703125 -10.296875 L 4.921875 -10.265625 C 5.210938 -10.929688 5.597656 -11.421875 6.078125 -11.734375 C 6.554688 -12.046875 7.132812 -12.203125 7.8125 -12.203125 C 8.5 -12.203125 9.019531 -12.085938 9.375 -11.859375 L 8.859375 -9.234375 L 8.640625 -9.1875 C 8.441406 -9.269531 8.25 -9.328125 8.0625 -9.359375 C 7.882812 -9.398438 7.660156 -9.421875 7.390625 -9.421875 C 6.546875 -9.421875 5.898438 -9.125 5.453125 -8.53125 C 5.003906 -7.9375 4.78125 -6.976562 4.78125 -5.65625 L 4.78125 0 Z M 1.75 0 "/></g></g><g transform="translate(161.168958, 32.412735)"><g><path d="M 5.03125 0.234375 C 3.9375 0.234375 3.101562 -0.0546875 2.53125 -0.640625 C 1.957031 -1.234375 1.671875 -2.128906 1.671875 -3.328125 L 1.671875 -16.96875 L 4.703125 -16.96875 L 4.703125 -3.453125 C 4.703125 -2.710938 5.007812 -2.34375 5.625 -2.34375 C 5.800781 -2.34375 5.988281 -2.375 6.1875 -2.4375 L 6.34375 -2.390625 L 6.609375 -0.0625 C 6.441406 0.03125 6.21875 0.101562 5.9375 0.15625 C 5.664062 0.207031 5.363281 0.234375 5.03125 0.234375 Z M 5.03125 0.234375 "/></g></g><g transform="translate(168.124358, 32.412735)"><g><path d="M 2.671875 5.140625 C 2.148438 5.140625 1.679688 5.097656 1.265625 5.015625 C 0.847656 4.929688 0.503906 4.828125 0.234375 4.703125 L 0.71875 2.234375 L 0.921875 2.171875 C 1.109375 2.265625 1.332031 2.335938 1.59375 2.390625 C 1.863281 2.453125 2.144531 2.484375 2.4375 2.484375 C 2.925781 2.484375 3.332031 2.421875 3.65625 2.296875 C 3.976562 2.171875 4.253906 1.957031 4.484375 1.65625 C 4.710938 1.363281 4.914062 0.953125 5.09375 0.421875 L 0.265625 -12.09375 L 3.4375 -12.09375 L 6.453125 -3.6875 L 6.71875 -3.6875 L 9.640625 -12.09375 L 12.734375 -12.09375 L 7.875 0.75 C 7.488281 1.789062 7.0625 2.628906 6.59375 3.265625 C 6.132812 3.898438 5.585938 4.367188 4.953125 4.671875 C 4.316406 4.984375 3.554688 5.140625 2.671875 5.140625 Z M 2.671875 5.140625 "/></g></g></g></svg>