<svg xmlns="http://www.w3.org/2000/svg" xmlns:xlink="http://www.w3.org/1999/xlink" width="500" zoomAndPan="magnify" viewBox="0 0 375 374.999991" height="500" preserveAspectRatio="xMidYMid meet" version="1.0"><defs><clipPath id="0a8c5e744f"><path d="M 0 323 L 375 323 L 375 365.0625 L 0 365.0625 Z M 0 323 " clip-rule="nonzero"/></clipPath><clipPath id="fc830a357a"><path d="M 135 323 L 178 323 L 178 365.0625 L 135 365.0625 Z M 135 323 " clip-rule="nonzero"/></clipPath></defs><path fill="#ffcc4d" d="M 62.191406 333.851562 C 60.765625 285.40625 56.933594 250.628906 52.402344 250.628906 C 47.878906 250.628906 44.046875 285.40625 42.621094 333.851562 Z M 62.191406 333.851562 " fill-opacity="1" fill-rule="nonzero"/><path fill="#a6d388" d="M 166.714844 203.011719 C 166.714844 255.496094 143.457031 271.433594 114.753906 271.433594 C 86.0625 271.433594 62.792969 255.496094 62.792969 203.011719 C 62.792969 150.539062 104.363281 73.773438 114.753906 73.773438 C 125.148438 73.773438 166.714844 150.539062 166.714844 203.011719 Z M 166.714844 203.011719 " fill-opacity="1" fill-rule="nonzero"/><path fill="#77b255" d="M 104.363281 195.8125 C 104.363281 253.808594 81.105469 271.433594 52.402344 271.433594 C 23.707031 271.433594 0.441406 253.808594 0.441406 195.8125 C 0.441406 137.792969 42.007812 52.964844 52.402344 52.964844 C 62.792969 52.964844 104.363281 137.792969 104.363281 195.8125 Z M 104.363281 195.8125 " fill-opacity="1" fill-rule="nonzero"/><path fill="#ffe8b6" d="M 83.578125 156.996094 L 218.675781 21.757812 L 353.777344 156.996094 L 353.777344 323.449219 L 83.578125 323.449219 Z M 83.578125 156.996094 " fill-opacity="1" fill-rule="nonzero"/><path fill="#ffffff" d="M 218.675781 156.996094 L 229.070312 156.996094 L 229.070312 323.449219 L 218.675781 323.449219 Z M 218.675781 156.996094 " fill-opacity="1" fill-rule="nonzero"/><path fill="#ffcc4d" d="M 83.578125 156.996094 L 93.96875 156.996094 L 93.96875 323.449219 L 83.578125 323.449219 Z M 343.382812 156.996094 L 353.777344 156.996094 L 353.777344 323.449219 L 343.382812 323.449219 Z M 343.382812 156.996094 " fill-opacity="1" fill-rule="nonzero"/><path fill="#66757f" d="M 353.777344 167.402344 C 351.117188 167.402344 348.453125 166.382812 346.429688 164.351562 L 218.675781 36.464844 L 90.925781 164.351562 C 86.863281 168.421875 80.292969 168.421875 76.230469 164.351562 C 72.167969 160.285156 72.167969 153.710938 76.230469 149.644531 L 211.328125 14.402344 C 215.394531 10.332031 221.960938 10.332031 226.023438 14.402344 L 361.121094 149.644531 C 365.1875 153.710938 365.1875 160.285156 361.121094 164.351562 C 359.097656 166.382812 356.4375 167.402344 353.777344 167.402344 Z M 353.777344 167.402344 " fill-opacity="1" fill-rule="nonzero"/><path fill="#66757f" d="M 218.675781 167.402344 C 216.015625 167.402344 213.355469 166.382812 211.328125 164.351562 C 207.265625 160.285156 207.265625 153.710938 211.328125 149.644531 L 278.878906 82.023438 C 282.941406 77.953125 289.511719 77.953125 293.574219 82.023438 C 297.636719 86.089844 297.636719 92.664062 293.574219 96.730469 L 226.023438 164.351562 C 223.996094 166.382812 221.335938 167.402344 218.675781 167.402344 Z M 218.675781 167.402344 " fill-opacity="1" fill-rule="nonzero"/><path fill="#c1694f" d="M 135.539062 261.03125 L 177.109375 261.03125 L 177.109375 323.449219 L 135.539062 323.449219 Z M 135.539062 261.03125 " fill-opacity="1" fill-rule="nonzero"/><path fill="#55acee" d="M 270.636719 261.03125 L 301.816406 261.03125 L 301.816406 302.644531 L 270.636719 302.644531 Z M 270.636719 261.03125 " fill-opacity="1" fill-rule="nonzero"/><path fill="#55acee" d="M 260.246094 261.03125 L 281.03125 261.03125 L 281.03125 302.644531 L 260.246094 302.644531 Z M 291.421875 261.03125 L 312.207031 261.03125 L 312.207031 302.644531 L 291.421875 302.644531 Z M 135.539062 167.402344 L 177.109375 167.402344 L 177.109375 209.015625 L 135.539062 209.015625 Z M 260.246094 167.402344 L 312.207031 167.402344 L 312.207031 209.015625 L 260.246094 209.015625 Z M 260.246094 167.402344 " fill-opacity="1" fill-rule="nonzero"/><g clip-path="url(#0a8c5e744f)"><path fill="#5c913b" d="M 374.558594 344.257812 C 374.558594 355.742188 365.25 365.0625 353.777344 365.0625 L 21.222656 365.0625 C 9.75 365.0625 0.441406 355.742188 0.441406 344.257812 C 0.441406 332.769531 9.75 323.449219 21.222656 323.449219 L 353.777344 323.449219 C 365.25 323.449219 374.558594 332.769531 374.558594 344.257812 Z M 374.558594 344.257812 " fill-opacity="1" fill-rule="nonzero"/></g><g clip-path="url(#fc830a357a)"><path fill="#ffffff" d="M 135.539062 323.449219 L 177.109375 323.449219 L 177.109375 365.0625 L 135.539062 365.0625 Z M 135.539062 323.449219 " fill-opacity="1" fill-rule="nonzero"/></g></svg>