<svg xmlns="http://www.w3.org/2000/svg" width="350" viewBox="0 0 262.5 48" height="64" version="1.0"><defs><clipPath id="a"><path d="M7.145 5H22v30H7.145zm0 0"/></clipPath><clipPath id="b"><path d="M7.145 41h50.054v6.02H7.145zm0 0"/></clipPath><clipPath id="c"><path d="M25 41h6v6.02h-6zm0 0"/></clipPath></defs><path d="M87.053 35.921a119.106 119.106 0 00-5.125-8.297 82.603 82.603 0 00-5.859-7.734v16.031h-5.438V11.437h4.485c.781.781 1.64 1.742 2.578 2.875a89.795 89.795 0 012.875 3.61 123.517 123.517 0 012.922 4 176.142 176.142 0 012.719 3.968V11.437h5.468v24.484zm9.055-9.156c0-1.644.25-3.082.75-4.312.508-1.239 1.176-2.27 2-3.094a8.058 8.058 0 012.844-1.875 8.892 8.892 0 013.313-.64c2.632 0 4.718.808 6.25 2.421 1.53 1.617 2.297 3.992 2.297 7.125 0 .305-.016.637-.047 1-.024.367-.043.688-.063.969h-11.937c.113 1.086.617 1.945 1.515 2.578.895.637 2.098.953 3.61.953.957 0 1.898-.086 2.828-.266.937-.175 1.695-.394 2.281-.656l.719 4.281a7.408 7.408 0 01-1.14.438c-.47.137-.997.254-1.579.36a29.82 29.82 0 01-1.844.265c-.656.07-1.32.11-1.984.11-1.668 0-3.121-.247-4.36-.735-1.242-.5-2.265-1.176-3.078-2.031a8.017 8.017 0 01-1.796-3.063c-.387-1.176-.579-2.453-.579-3.828zm12.36-2a5.387 5.387 0 00-.235-1.312 3.11 3.11 0 00-1.625-1.938c-.406-.219-.918-.328-1.53-.328-.587 0-1.09.105-1.516.312-.43.2-.782.465-1.063.797-.281.325-.5.703-.656 1.141a6.733 6.733 0 00-.328 1.328zm14.415 11.156h-5.265V17.343h5.265zm.5-23.953c0 .969-.312 1.73-.937 2.281a3.209 3.209 0 01-2.203.829c-.856 0-1.594-.274-2.22-.829-.624-.55-.937-1.312-.937-2.28 0-.97.313-1.727.938-2.282a3.245 3.245 0 012.219-.828c.843 0 1.578.277 2.203.828.625.555.937 1.312.937 2.281zm8.93 14.062c0 2.95 1.191 4.423 3.578 4.423.54 0 1.047-.07 1.516-.22a6.236 6.236 0 001.203-.5v-8.405c-.262-.04-.57-.079-.922-.11a11.36 11.36 0 00-1.234-.062c-1.387 0-2.422.46-3.11 1.375-.687.918-1.031 2.086-1.031 3.5zm11.563 7.563c0 3.031-.774 5.281-2.313 6.75-1.543 1.477-3.93 2.219-7.156 2.219a20.03 20.03 0 01-3.406-.297 20.383 20.383 0 01-3.125-.797l.906-4.422c.82.332 1.687.594 2.594.782.914.187 1.945.28 3.093.28 1.508 0 2.578-.327 3.203-.984.625-.656.938-1.503.938-2.546v-.672a8.481 8.481 0 01-1.75.593 9.738 9.738 0 01-1.969.188c-2.562 0-4.527-.758-5.89-2.281-1.368-1.52-2.047-3.645-2.047-6.375 0-1.364.207-2.602.625-3.719a7.99 7.99 0 011.859-2.89c.813-.801 1.805-1.415 2.984-1.844 1.176-.438 2.508-.657 4-.657.633 0 1.286.032 1.954.094.675.055 1.343.125 2 .219.656.094 1.285.21 1.89.344.602.125 1.14.257 1.61.39zm4.94 2.328V9.36l5.266-.86v8.907c.351-.114.804-.223 1.36-.328a8.869 8.869 0 011.609-.157c1.507 0 2.765.211 3.765.625 1 .407 1.797.985 2.39 1.735.602.75 1.032 1.648 1.282 2.687.25 1.031.375 2.184.375 3.453v10.5h-5.266v-9.859c0-1.695-.218-2.895-.656-3.594-.437-.707-1.246-1.062-2.422-1.062-.468 0-.914.043-1.328.125-.406.086-.777.172-1.11.265v14.125zm32.717-9.437c0-3.383-1.246-5.078-3.734-5.078a6.1 6.1 0 00-1.61.218c-.53.137-.964.31-1.296.516v9.578c.257.043.586.086.984.125.406.031.844.047 1.312.047 1.438 0 2.52-.492 3.25-1.484.727-.989 1.094-2.297 1.094-3.922zm5.375.14c0 1.493-.219 2.836-.656 4.032-.438 1.199-1.07 2.226-1.89 3.078-.825.844-1.84 1.496-3.048 1.953-1.199.457-2.562.687-4.093.687-.637 0-1.305-.03-2-.093a31.667 31.667 0 01-3.969-.547 23.414 23.414 0 01-1.625-.406V9.358l5.266-.859v9.266a9.762 9.762 0 011.843-.594 9.188 9.188 0 012.047-.218c1.313 0 2.473.23 3.485.687a6.78 6.78 0 012.546 1.969c.688.844 1.207 1.86 1.563 3.047.352 1.187.531 2.511.531 3.968zm21.45-.031c0 1.461-.214 2.797-.64 4.016-.43 1.21-1.043 2.246-1.844 3.11a8.26 8.26 0 01-2.875 2c-1.117.468-2.371.702-3.766.702-1.367 0-2.609-.234-3.734-.703a8.406 8.406 0 01-2.875-2c-.793-.863-1.414-1.898-1.86-3.11-.449-1.218-.671-2.554-.671-4.015 0-1.457.226-2.785.687-3.984.457-1.207 1.094-2.235 1.906-3.078a8.487 8.487 0 012.891-1.985c1.125-.468 2.344-.703 3.656-.703 1.344 0 2.57.235 3.688.703a8.34 8.34 0 012.89 1.985c.801.843 1.426 1.87 1.875 3.078.446 1.2.672 2.527.672 3.984zm-5.375 0c0-1.625-.324-2.898-.968-3.828-.649-.937-1.575-1.406-2.782-1.406-1.199 0-2.132.469-2.797 1.406-.656.93-.984 2.203-.984 3.828s.328 2.918.984 3.875c.665.95 1.598 1.422 2.797 1.422 1.207 0 2.133-.473 2.782-1.422.644-.957.968-2.25.968-3.875zM223.618 22a40.819 40.819 0 00-1.657-.36 10.019 10.019 0 00-2.046-.203c-.336 0-.73.031-1.188.094a6.75 6.75 0 00-1.047.187v14.203h-5.265V18.328c.945-.332 2.062-.645 3.343-.938 1.282-.289 2.711-.437 4.297-.437.281 0 .617.023 1.016.062.406.031.804.078 1.203.14.406.055.805.122 1.203.204.395.086.738.183 1.031.297zm11.129 14.28c-1.532-.03-2.778-.198-3.735-.5-.949-.3-1.699-.726-2.25-1.28a4.434 4.434 0 01-1.14-2.016c-.2-.79-.297-1.68-.297-2.672V9.359l5.265-.86v20.25c0 .47.036.899.11 1.282.07.375.207.695.406.953.195.25.484.46.86.625.382.168.894.277 1.53.328zm20.243-18.937a164.42 164.42 0 01-3.328 10.063 117.963 117.963 0 01-3.766 9.11c-.5 1.062-1 1.96-1.5 2.702-.492.75-1.031 1.364-1.625 1.844a5.666 5.666 0 01-1.984 1.047c-.742.226-1.606.344-2.594.344-.824 0-1.586-.079-2.281-.235-.7-.148-1.274-.312-1.719-.5l.922-4.203a8.11 8.11 0 002.797.484c.937 0 1.656-.257 2.156-.765.508-.5.941-1.2 1.297-2.094-1.2-2.351-2.402-4.992-3.61-7.922-1.199-2.937-2.324-6.226-3.374-9.875h5.578c.226.918.504 1.914.828 2.985.32 1.074.656 2.156 1 3.25.351 1.093.71 2.164 1.078 3.203a75.31 75.31 0 001.047 2.812c.3-.844.617-1.781.953-2.812.332-1.04.656-2.11.969-3.203.32-1.094.629-2.176.922-3.25.289-1.07.554-2.067.796-2.985zm0 0" fill="#363636"/><path fill="#ffcc4d" d="M15.445 42.965c-.191-6.434-.703-11.05-1.308-11.05-.602 0-1.114 4.616-1.305 11.05zm0 0"/><path fill="#a6d388" d="M29.398 25.59c0 6.969-3.105 9.086-6.937 9.086-3.832 0-6.938-2.117-6.938-9.086s5.551-17.164 6.938-17.164c1.387 0 6.937 10.195 6.937 17.164zm0 0"/><g clip-path="url(#a)"><path fill="#77b255" d="M21.074 24.633c0 7.703-3.105 10.043-6.937 10.043-3.828 0-6.938-2.34-6.938-10.043 0-7.703 5.551-18.969 6.938-18.969 1.386 0 6.937 11.266 6.937 18.969zm0 0"/></g><path fill="#ffe8b6" d="M18.3 19.48L36.333 1.52l18.035 17.96v22.102H18.301zm0 0"/><path fill="#fff" d="M36.332 19.48h1.39v22.102h-1.39zm0 0"/><path fill="#ffcc4d" d="M18.3 19.48h1.387v22.102h-1.386zm34.68 0h1.387v22.102H52.98zm0 0"/><path fill="#66757f" d="M54.367 20.86a1.38 1.38 0 01-.98-.403L36.332 3.473l-17.05 16.984a1.39 1.39 0 01-1.962 0 1.375 1.375 0 010-1.953L35.352.543a1.391 1.391 0 011.96 0l18.036 17.96a1.38 1.38 0 01-.98 2.355zm0 0"/><path fill="#66757f" d="M36.332 20.86c-.355 0-.707-.133-.98-.403a1.375 1.375 0 010-1.953l9.02-8.98a1.391 1.391 0 011.96 0 1.374 1.374 0 010 1.953l-9.02 8.98a1.38 1.38 0 01-.98.402zm0 0"/><path fill="#c1694f" d="M25.234 33.293h5.551v8.289h-5.55zm0 0"/><path fill="#55acee" d="M43.27 33.293h4.164v5.527H43.27zm0 0"/><path fill="#55acee" d="M41.883 33.293h2.773v5.527h-2.773zm4.16 0h2.777v5.527h-2.777zM25.234 20.859h5.551v5.528h-5.55zm16.649 0h6.937v5.528h-6.937zm0 0"/><g clip-path="url(#b)"><path fill="#5c913b" d="M57.14 44.348a2.77 2.77 0 01-2.773 2.761H9.977a2.772 2.772 0 01-2.778-2.761 2.773 2.773 0 012.778-2.766h44.39a2.77 2.77 0 012.774 2.766zm0 0"/></g><g clip-path="url(#c)"><path fill="#fff" d="M25.234 41.582h5.551v5.527h-5.55zm0 0"/></g></svg>