<svg xmlns="http://www.w3.org/2000/svg" width="500" viewBox="0 0 375 375" height="500" version="1.0"><defs><clipPath id="a"><path d="M0 323h375v42.063H0zm0 0"/></clipPath><clipPath id="b"><path d="M135 323h43v42.063h-43zm0 0"/></clipPath></defs><path fill="#ffcc4d" d="M62.191 333.852c-1.425-48.446-5.257-83.223-9.789-83.223-4.523 0-8.355 34.777-9.78 83.223zm0 0"/><path fill="#a6d388" d="M166.715 203.012c0 52.484-23.258 68.422-51.961 68.422-28.692 0-51.961-15.938-51.961-68.422 0-52.473 41.57-129.239 51.96-129.239 10.395 0 51.962 76.766 51.962 129.239zm0 0"/><path fill="#77b255" d="M104.363 195.813c0 57.996-23.258 75.62-51.96 75.62-28.696 0-51.962-17.624-51.962-75.62 0-58.02 41.567-142.848 51.961-142.848 10.391 0 51.961 84.828 51.961 142.847zm0 0"/><path fill="#ffe8b6" d="M83.578 156.996L218.676 21.758l135.101 135.238V323.45H83.578zm0 0"/><path fill="#fff" d="M218.676 156.996h10.394V323.45h-10.394zm0 0"/><path fill="#ffcc4d" d="M83.578 156.996h10.39V323.45h-10.39zm259.805 0h10.394V323.45h-10.394zm0 0"/><path fill="#66757f" d="M353.777 167.402c-2.66 0-5.324-1.02-7.347-3.05L218.676 36.465 90.926 164.352a10.369 10.369 0 01-14.696 0 10.397 10.397 0 010-14.707L211.328 14.402a10.369 10.369 0 0114.695 0l135.098 135.243a10.39 10.39 0 010 14.707 10.337 10.337 0 01-7.344 3.05zm0 0"/><path fill="#66757f" d="M218.676 167.402c-2.66 0-5.32-1.02-7.348-3.05a10.397 10.397 0 010-14.707l67.55-67.622a10.369 10.369 0 0114.696 0 10.397 10.397 0 010 14.707l-67.55 67.622a10.353 10.353 0 01-7.348 3.05zm0 0"/><path fill="#c1694f" d="M135.54 261.031h41.57v62.418h-41.57zm0 0"/><path fill="#55acee" d="M270.637 261.031h31.18v41.614h-31.18zm0 0"/><path fill="#55acee" d="M260.246 261.031h20.785v41.614h-20.785zm31.176 0h20.785v41.614h-20.785zm-155.883-93.629h41.57v41.614h-41.57zm124.707 0h51.961v41.614h-51.96zm0 0"/><g clip-path="url(#a)"><path fill="#5c913b" d="M374.559 344.258c0 11.484-9.309 20.805-20.782 20.805H21.223C9.75 365.063.44 355.743.44 344.257c0-11.488 9.309-20.809 20.782-20.809h332.554c11.473 0 20.782 9.32 20.782 20.809zm0 0"/></g><g clip-path="url(#b)"><path fill="#fff" d="M135.54 323.45h41.57v41.613h-41.57zm0 0"/></g></svg>